<?xml version="1.0" encoding="UTF-8"?><svg xmlns="http://www.w3.org/2000/svg" xmlns:xlink="http://www.w3.org/1999/xlink" viewBox="0 0 1080 1080"><defs><linearGradient id="linear-gradient" x1="493.91" y1="888.13" x2="586.08" y2="888.13" gradientUnits="userSpaceOnUse"><stop offset="0" stop-color="#7f8014"/><stop offset=".3" stop-color="#5e5009"/><stop offset=".7" stop-color="#3c3c17"/><stop offset="1" stop-color="#003548"/></linearGradient><linearGradient id="linear-gradient-2" x1="529.64" y1="930.59" x2="596.53" y2="105.27" gradientUnits="userSpaceOnUse"><stop offset=".01" stop-color="#0a6c60"/><stop offset="1" stop-color="#00872d"/></linearGradient><linearGradient id="linear-gradient-3" x1="306.9" y1="500.15" x2="921.84" y2="794.87" gradientUnits="userSpaceOnUse"><stop offset="0" stop-color="#00562e"/><stop offset=".71" stop-color="#2c4984"/><stop offset="1" stop-color="#005075"/></linearGradient><linearGradient id="linear-gradient-4" x1="410.65" y1="439.02" x2="538.84" y2="381.21" gradientUnits="userSpaceOnUse"><stop offset="0" stop-color="#eef65d"/><stop offset=".99" stop-color="#004e40"/></linearGradient><linearGradient id="linear-gradient-5" x1="425.33" y1="290.79" x2="555.47" y2="199.32" xlink:href="#linear-gradient-4"/><linearGradient id="linear-gradient-6" x1="350.58" y1="702.86" x2="556.07" y2="552.86" xlink:href="#linear-gradient-4"/><linearGradient id="linear-gradient-7" x1="301.8" y1="489.3" x2="465.4" y2="489.3" xlink:href="#linear-gradient-4"/><linearGradient id="linear-gradient-8" x1="392.57" y1="411.78" x2="339.81" y2="495.72" xlink:href="#linear-gradient-3"/><linearGradient id="linear-gradient-9" x1="266.89" y1="600.08" x2="534.07" y2="916.73" xlink:href="#linear-gradient-3"/><linearGradient id="linear-gradient-10" x1="14402.61" y1="-2267.71" x2="14673.87" y2="-1995.34" gradientTransform="translate(-888.78 294.04) scale(.1)" gradientUnits="userSpaceOnUse"><stop offset="0" stop-color="#b37713"/><stop offset="1" stop-color="#fbcd41"/></linearGradient><linearGradient id="linear-gradient-11" x1="14524.6" y1="-1762.5" x2="14783.62" y2="-1530.28" gradientTransform="translate(-888.78 294.04) scale(.1)" gradientUnits="userSpaceOnUse"><stop offset="0" stop-color="#b87d1a"/><stop offset="1" stop-color="#f1b935"/></linearGradient><linearGradient id="linear-gradient-12" x1="14938.62" y1="-2126.14" x2="15155.2" y2="-1889.25" gradientTransform="translate(-888.78 294.04) scale(.1)" gradientUnits="userSpaceOnUse"><stop offset="0" stop-color="#f8c53b"/><stop offset="1" stop-color="#b97c16"/></linearGradient><linearGradient id="linear-gradient-13" x1="14784.82" y1="-2487.07" x2="14628.63" y2="-2277.47" gradientTransform="translate(-888.78 294.04) scale(.1)" gradientUnits="userSpaceOnUse"><stop offset="0" stop-color="#eab435"/><stop offset="1" stop-color="#fbe482"/></linearGradient><linearGradient id="linear-gradient-14" x1="14662.41" y1="-1583.8" x2="14762.34" y2="-1444.96" gradientTransform="translate(-888.78 294.04) scale(.1)" gradientUnits="userSpaceOnUse"><stop offset="0" stop-color="#dea92f"/><stop offset="1" stop-color="#b47a16"/></linearGradient><linearGradient id="linear-gradient-15" x1="14680.43" y1="-2213.87" x2="14609.38" y2="-2125.48" gradientTransform="translate(-888.78 294.04) scale(.1)" gradientUnits="userSpaceOnUse"><stop offset="0" stop-color="#fbebac"/><stop offset="1" stop-color="#fefbdf"/></linearGradient></defs><g style="isolation:isolate;"><g id="Layer_1"><path d="M505.45,804.64s-3.85,119.96-11.54,161.98c0,0,26.9,23.68,92.17,6.14,0,0-12.81-108.56-6.4-162.03,0,0-25.62-26.28-74.24-6.1Z" style="fill:url(#linear-gradient);"/><path d="M902.02,827.89c-3.02,1.89-6.16,3.49-9.29,4.98-21.14-.96-40.96-15.4-57.44-28.18-9.52-7.28-18.91-14.77-26.89-23.53,19.2,12.3,41.76,18.76,64.23,18.36.77,0,.88-1.18.16-1.41-16.61-4.98-31.95-10.59-46.05-18.5,19.52-.68,40.34-3.33,55.29-15.65.72-.58.55-1.98-.49-1.98-.97.06-1.96.22-2.94.28l-.03-.02c-28.01,4.26-57.74-5.97-84.11-21.83,9.48-5.03,18.59-10.78,26.92-16.36,10.83-7.26,29.51-23.84,26.65-39.33-.44-2.2-3.14-1.65-3.69.05-1.26,3.6-3.44,7.06-6.19,10.36-13.53,7.56-29.97,7.31-45.25,6.82,14.24-3.57,27.6-10.4,38.75-22.06,2.19-1.34,4.32-2.88,6.43-4.62.74-.64.58-2.07-.24-2.42.17-.19.36-.35.49-.53.6-.83.2-2.66-.83-2.48-4.64.83-9.15,1.71-13.69,2.72-21.44-1.2-42.4-7.69-60.63-22.13-4.7-3.77-9.98-8.02-15.34-12.68,19.47,5.25,39.73,5.81,55.73,2.84,1.29-.22,1.82-2.73.3-3.11-9.35-2.25-18.62-4.51-27.89-7.1,15.04-1.53,28.73-8,37.72-22.88.68-1.19-.52-2.42-1.4-2.23-10.64,2.47-21.89,3.21-33.33,2.62-26.34-10.25-56.42-35.8-71.76-54.55-2.66-3.22-5.09-6.65-7.48-10.09,21.72-2.48,46.99-9.85,59.15-29.87,2.26-3.57.27-10.03-3.99-8.28-2.29.99-4.67,1.85-7.04,2.69-2.2.3-4.3.5-6.44.6-17.13-1.12-35.75-7.43-52.03-16.96,7.2-.22,14.27-2.28,20.76-6.43,3.14-.83,6.22-2.36,9.08-4.92.77-.6.55-2.34-.49-2.25.25-.27.52-.42.77-.68.66-.77.11-2.34-.8-2.25-7.95.83-15.24.25-22.05-1.3-7.67-4.02-14.77-10.15-21.42-16.83,18.01,2.88,36.33,2.61,50.05-4.82.8.13,1.71.35,2.53.42,2.2.3,3.27-2,3.21-4.27,1.07-.85,2.17-1.65,3.14-2.61,1.12-1.12.72-3.14-.77-3.3-3.66-.33-7.75-.61-12.07-.89-22.05-9.07-41.74-25.07-60.94-41.02-14.6-12.02-24.26-25.79-32.5-41.17,23.48,5.37,48.91,3.19,65.22-3.25,1.05-.42,1.18-1.7.72-2.59-.06-.08-.06-.11-.13-.22-.17-.22-.36-.36-.63-.5h-.06c-.13-.03-.19-.14-.35-.14-.17-.01-.36-.11-.55-.11-17.4-3.46-33.99-21.94-47.68-34.51-4.09-3.69-7.83-7.62-11.46-11.65,24.97,18.34,54.88,31.43,72.81,14.22.72-.74.82-2.48-.35-2.76-88.23-20.1-133.01-116.09-160.42-213.24-1.26-4.43-7.1-5.09-7.87.14-.3,2.22-.46,4.4-.69,6.6-2.66-1.12-6.22.57-7.07,4.29-10.95,46.86-22.57,125.47-69.95,138.18-1.04.28-.58,2.09.44,1.86,7.67-1.41,15.54-5.39,23.1-11.21-19.55,25.11-47.41,54.93-75.97,56.4-2.36.14-2.33,4.54.05,4.62,20.52.42,39.07-4.1,56.35-13.56-13.91,19.47-31.01,35.99-50.34,45.92-3.17,1.65-1.93,7.51,1.52,6.43,20.64-6.46,40.42-17.91,56.83-34.9-1.68,3.18-3.33,6.24-5.15,9.22-1.74,2.5-3.41,4.98-5.15,7.56-18.59,26.06-44.51,42.67-72.78,45.64-3.14.35-2.89,5.5.09,5.93,10,1.43,19.79,1.07,29.29-.83-16.8,13.34-36.63,23.24-54.36,18.92-2.22-.55-3.02,3.38-.88,4.2,18.45,7.23,35.22,5.69,51.66-.89-17.05,14.36-36.19,25.63-54.7,24.97-2.37-.03-2.62,4.37-.23,4.62,12.92,1.37,25.18.72,37.04-1.98-20.55,14.66-43.85,23.24-70.7,22.11-1.95-.09-3.02,2.22-2.89,4.32-3.18-.41-5.01,4.98-1.97,6.98,19.74,13.17,40.89,18.61,62.3,18.51-14.69,9.05-30.88,14.24-47.51,14.52-3.16.08-3.35,5.23-.39,5.94,9.89,2.28,19.69,2.77,29.29,1.7-17.77,11.85-38.28,20.04-55.6,14.16-2.2-.69-3.3,3.11-1.23,4.15,4.73,2.29,9.4,3.87,14.06,5.01-4.31,1.04-8.63,1.93-13.06,2.58-1.62.23-2.53,1.59-2.73,3.05-3.05.06-6.13.09-9.11.13-4.49,0-5.22,8.2-.96,9.57,14.49,4.65,29.58,7.35,44.88,8.28-21.99,13.44-46.38,20.37-73.66,16.86-1.95-.25-3.14,1.96-3.21,4.05-3.1-.66-5.36,4.56-2.47,6.82,24.64,19.52,52.83,25.96,81.47,23.74-2.99,2.37-5.97,4.61-8.96,6.77-27.85,19.76-57.82,33-89.64,34.79-1.65.08-2.69,1.35-3.05,2.8-3.02-.22-6.03-.44-9.05-.66-4.48-.39-5.83,7.71-1.62,9.44,14.98,6.24,30.88,10.45,47.07,12.56-2.64.82-5.33,1.53-7.95,1.87-2.28.38-3.44,2.33-3.57,4.37-4.24-1.73-8.33-3.77-12.1-6.55-2.2-1.59-4.89,1.73-3.41,4.37,7.65,14.13,22.58,20.27,38.41,22.74-10.7,3.82-21.56,7.37-31.76,13.36-1.84,1.08-.9,4.68,1.05,4.07,15.98-5.15,32.17-7.98,47.74-14.41-7.21,8.41-14.76,16.56-22.77,24.45-23.53,23.27-58.35,56.23-88.59,57.88-2.26.14-3.57,2.01-3.91,4.05-4.02-2.1-7.92-4.51-11.55-7.62-1.98-1.73-4.97,1.35-3.73,4.1,12.48,28.02,53.57,29.72,76.66,29.91,11.76.09,27.31-1.81,42.79-6.05-11.79,8.91-25.54,14.47-38.31,19.96-2.33.99-1.78,5.56.72,4.76,5.25-1.68,10.47-3.27,15.64-4.94-22.8,15.64-48.78,23.7-74.51,25.07-.36,0-.68.13-.94.27-2.1-.93-4.24-1.7-6.25-2.7-2.19-1.07-3.6,2.84-1.82,4.45,46.55,43.52,117.35,38.24,171,1.93-7.62,8.42-15.79,15.86-25.79,18.59-1.27.32-1.71,2-1.46,3.32-8.89,2.26-17.99,4.59-27.08,7.75-3.83,1.29-3.96,9.35.42,9.1,32.42-2.06,65.52-2.33,95.99-18.75,11.64-6.35,22.83-14.51,33.35-23.95-7.26,11.52-15.18,22.57-23.6,32.41-.69.82.25,2.17.94,1.4,16.63-17.57,35.56-35.97,47.29-59.36-.97,7.15-2.06,14.36-3.38,21.33-3.54,19.2-5.52,42.2-13.04,60.77-3.54,6.3-7.07,12.64-11.32,18.37-.52.71-.16,2.12.74,1.78,10.58-3.93,17-10.64,25.05-20.24,13.17-15.98,29.03-27.78,41.83-44.43,2.53-3.18,5.03-6.71,7.5-10.45-3.02,9.85-6.74,19.08-11.55,26.95-.64,1.08.76,2.18,1.43,1.12,9.18-13.64,15.05-27.27,19.66-43.2,14.24,31.46,34.12,54.52,54.45,80.84.77.97,1.92-.36,1.32-1.45-1.59-2.58-2.94-5.34-4.49-8.05,3.17,4.39,6.35,8.66,9.55,13.01.82,1.15,2.15-.13,1.76-1.49-6.16-19.8-11.06-39.29-14.6-59.12,48.45,26.59,113.56,52.83,159.12,17.6,2.2-1.7,2.17-7.02-1.04-6.77-4.42.28-9.05.46-13.85.49-12.59-1.37-24.11-5.22-35.09-11.35,15.64,2.69,31.32,2.86,46.01-.74,14.63,8.27,30.91,13.78,46.71,18.07,18.4,4.98,36.49,6.87,55.4,6.66,14.82-.14,31.43.93,44.87-6.38,3.05-.33,6.1-.72,9.15-1.16.93-.14,1.32-1.7.22-1.87-25.33-3.6-50.07-3.32-73.85-13.34,35.96,2.31,79.69.66,101.44-26.34,1.43-1.74-.44-4.46-2.39-3.19Z" style="fill:url(#linear-gradient-2);"/><path d="M902.02,827.89c-3.02,1.89-6.16,3.49-9.29,4.98-21.14-.96-40.96-15.4-57.44-28.18-9.52-7.28-18.91-14.77-26.89-23.53,19.2,12.3,41.76,18.76,64.23,18.36.77,0,.88-1.18.16-1.41-16.61-4.98-31.95-10.59-46.05-18.5,19.52-.68,40.34-3.33,55.29-15.65.49-.38.55-1.12.24-1.56-.14-.23-.36-.42-.72-.42-.97.06-1.96.22-2.97.27-15.73,2.39-31.92.09-47.79-5.05-12.48-4.01-24.74-9.82-36.32-16.78,3.57-1.85,6.95-3.91,10.45-5.99,5.7-3.4,11.28-6.9,16.47-10.37,4.84-3.24,11.22-8.39,16.61-14.41,3.66-4.16,6.84-8.77,8.66-13.51,1.46-3.77,2.07-7.62,1.38-11.41-.44-2.2-3.14-1.65-3.69.05-1.26,3.6-3.44,7.06-6.19,10.36-13.53,7.56-29.97,7.31-45.25,6.82,10.06-2.51,19.55-6.82,28.26-13.15.25-.22.55-.39.8-.58.64-.49,1.4-.93,2.04-1.48-.16.05-.25.09-.39.11,1.24-.99,2.56-1.96,3.77-3.1,1.43-1.29,2.92-2.45,4.27-3.87,2.19-1.34,4.32-2.88,6.43-4.62.74-.64.58-2.07-.24-2.42.17-.19.36-.35.49-.53.6-.83.2-2.66-.83-2.48-4.64.83-9.15,1.71-13.69,2.72-15.37-.83-30.42-4.49-44.47-11.77-5.58-2.91-10.95-6.29-16.15-10.36-4.7-3.77-9.98-8.02-15.34-12.68,19.47,5.25,39.73,5.81,55.73,2.84,1.29-.22,1.82-2.73.3-3.11-9.35-2.25-18.62-4.51-27.89-7.1,11.41-1.16,22.05-5.17,30.42-13.59,2.66-2.64,5.09-5.74,7.29-9.29.68-1.19-.52-2.42-1.4-2.23-10.64,2.47-21.89,3.21-33.33,2.62-5.11-2.01-10.39-4.7-15.64-7.67-21.86-12.37-43.78-31.76-56.12-46.88-2.66-3.22-5.09-6.65-7.48-10.09,20.68-2.36,44.43-9.27,57.23-27.19.61-.94,1.4-1.71,1.92-2.69,2.26-3.57.27-10.03-3.99-8.28-2.29.99-4.67,1.85-7.04,2.69-2.2.3-4.3.5-6.44.6-17.13-1.12-35.75-7.43-52.03-16.96,1.62-.06,3.22-.22,4.81-.44,4.4-.66,8.69-2.11,12.78-4.29,1.07-.52,2.14-1.07,3.18-1.7,3.14-.83,6.22-2.36,9.08-4.92.77-.6.55-2.34-.49-2.25.25-.27.52-.42.77-.68.66-.77.11-2.34-.8-2.25-7.95.83-15.24.25-22.05-1.3-7.67-4.02-14.77-10.15-21.42-16.83.82.11,1.64.2,2.5.33,17.19,2.5,34.45,1.95,47.56-5.15.8.13,1.71.35,2.53.42,1.23.17,2.04-.52,2.56-1.49.42-.75.68-1.78.64-2.78,1.07-.85,2.17-1.65,3.14-2.61,1.12-1.12.72-3.14-.77-3.3-3.66-.33-7.75-.61-12.07-.89-12.19-4.98-23.64-12.16-34.7-20.24-8.99-6.52-17.68-13.64-26.24-20.78-14.6-12.02-24.26-25.79-32.5-41.17,20.3,4.68,42.07,3.63,58.1-.89,2.52-.71,4.95-1.49,7.12-2.36,1.05-.42,1.18-1.7.6-2.81-.17-.22-.36-.36-.69-.5-.13-.03-.19-.14-.35-.14-.17-.01-.36-.11-.55-.11-17.4-3.46-33.99-21.94-47.68-34.51-4.09-3.69-7.83-7.62-11.46-11.65,24.97,18.34,54.88,31.43,72.81,14.22.72-.74.82-2.48-.35-2.76-2.17-.47-4.15-1.23-6.22-1.79-.24.13-.42.3-.66.44-2.39-.09-4.73-.32-7.04-.79-14.82-2.99-30.13-10.36-43.52-18.39-28.45-17.02-45.09-45.46-64.97-74.27-1.1-1.6-3.47.17-2.89,2.12,5.81,17.13,14.3,32.72,24.36,46.56,4.81,11.83,10.39,22.38,17.1,31.37-1.65-1.21-3.28-2.45-4.87-3.76-9.34-7.81-18.2-18.23-28.32-24.12-1.93-1.1-3.57,1.68-2.17,3.6,3.63,5.17,7.43,10.01,11.39,14.69,15.5,19.83,31.81,36.85,50.92,49.08-4.67-.46-9.41-1.15-14.39-2.31-27.06-6.38-49.8-19.11-68.22-44.76-1.16-1.52-3.33.6-2.36,2.29,4.76,8.14,9.59,16.01,14.98,23.32,20.82,39.9,47.56,74.85,78.94,97.64-25.04-14.74-47.02-32.95-68.14-56.2-1.84-1.98-4.02,1.04-2.59,3.3,6.68,10,12.62,19.31,19.42,27.8,19.54,30.66,43.59,61.24,71.58,78.28-20.16-4.75-45.56-22.42-60.43-39.54-1.16-1.35-3.24.56-2.2,2.2,4.12,6.57,8.69,12.56,13.62,17.93,5.22,7.73,9.89,15.32,17.02,22.06,9.38,8.86,19.88,16,30.63,21.97-36.98-9.57-74.6-39.37-100.16-73.61-2.15-2.81-5.09.93-3.99,3.91,2.88,7.81,7.42,15.06,12.6,21.72,4.75,9.52,9.08,19.11,13.72,28.48-.38.2-.71.74-.44,1.3,2.99,5.82,6.03,11.58,9.27,17.15-8.99-9.96-17.49-20.56-25.92-31.1-2.07-4.45-3.99-8.91-5.55-13.53-.33-1.18-2.11-1.12-1.89.36,2.22,19.67,9.32,40.69,20.08,55.65,1.74,2.47,5.09-.25,4.37-3.28-1.78-6.91-4.49-13.42-7.51-19.77,8.46,13.09,17.08,25.35,28.12,36.68,4.97,5.11,10.48,9.68,16.22,13.88,7.69,9.37,15.6,18.45,23.93,27.45,14.54,15.86,32.75,25.62,50.59,34.62,17.25,8.69,35.91,15.62,54.88,19.16-31.01,3.18-65.01,3.65-91.56-16.14-1.41-1.08-3.5,1.21-2.36,3,3.82,6.08,8.17,10.45,12.93,13.94,20.15,22.24,45.76,39.48,70.97,49.6,7.32,2.92,15.07,5.88,22.96,8.55-37.65-5.42-78.01-6.4-108.85-33.29-2.28-2.47-4.38-4.98-6.22-7.61-1.05-2.14-2.06-4.21-2.92-6.4-.36-.79-1.04-1.22-1.76-1.55-1.49-3.05-2.56-6.18-3.21-9.3-.36-2-3.18-1.41-3.18.49.06,9.65,2.3,18.31,6.16,26.04,11.96,35.99,52.93,61.29,83.23,74.85,9.15,4.09,18.64,6.85,28.37,8.69-28.02,2.26-55.98-.03-82.79-8.09-7.65-2.72-15.12-5.8-22.43-9.27,5.36,13.66,12.95,26.51,20.7,38.82,9.84,15.64,17.93,37.15,33.17,47.49,6.03,4.07-31.84-8.16-38.52-12.27-18.07-11.05-36.1-23.2-50.18-39.73-11.91-14-21.47-29.45-29.45-45.97-.09.83-.22,1.7-.3,2.51,1.07,7.97,2.31,16.11,4.29,23.81-1.89-1.89-3.71-3.77-5.55-5.66-6.22,37.29,2.2,66.73,12.71,73.09,2.66,1.62-19.24-7.09-23.84-11.31-16.06-14.85-26.73-37.04-34.45-57.83-1.74-4.7-3.36-9.48-4.89-14.25-.79-2.55-4.94-11.64-4.06-14-.52,1.34-1.01,2.64-1.49,3.99-2.4,7.23-1.85,16.74-2.18,24.27-.03.8-.03,1.7-.09,2.51-7.78,29.61,3.22,65.93,17.59,90.52,5.37,9.16,13.08,18.62,22.11,27.13-2.94-1.31-5.86-2.66-8.82-3.85-.65-.3-1.27-.57-1.95-.83-1.95-1.78-3.93-3.54-5.77-5.47-18.98-19.71-32.99-46.16-41.19-73.36-1.85-14.43-3.68-28.92-6.03-43.3-.09-.19-.16-.27-.23-.39-.28-2.03-.52-4.06-1.04-5.94-.22-1.01-1.62-.97-1.84.02-9.51,43.19-19.53,84.39-38.63,124.2-2.7,5.66-5.61,11.19-8.57,16.69.36-1.71.85-3.46,1.26-5.14,3.9-17.07,5.06-35.08,6.43-52.52,1.34-17.21,3.41-34.26-3.21-50.43-.17-.47-.58-.72-1.04-.85.09-2.17.22-4.27.09-6.51-.06-1.16-1.73-1.45-2.01-.23-10.32,44.57-52,79.93-84.46,107.08-2.59,2.14-5.26,4.18-7.92,6.19,25.46-30.19,48.42-73.99,47.38-113.04,0-.47-.35-.77-.71-.86-.16-.85-1.34-1.12-1.73-.3-11.68,24.31-31.87,39.74-53.12,53.98-20.46,13.72-40.39,27.6-61.79,39.57-14.36,8.05-32.39,14.9-51.34,18.91,23.32-11.94,44.82-30.44,62.77-49.93,12.62-13.7,28.21-31.82,34.18-51,3.24-4.68,5.74-10.03,6.95-16.41.22-.97-.91-1.73-1.62-.97-25.27,28.59-61.89,38.45-96.92,47.65-19.33,5.09-40.42,5.25-59.97,1.45-.09,0-.16-.06-.24-.06-1.38.17-2.72.39-4.05.46-2.26.14-3.57,2.01-3.91,4.05-4.02-2.1-7.92-4.51-11.55-7.62-1.98-1.73-4.97,1.35-3.73,4.1,1.26,2.77,2.81,5.22,4.57,7.53,15.98,20.74,51.26,22.24,72.09,22.38,11.76.09,27.31-1.81,42.79-6.05-11.79,8.91-25.54,14.47-38.31,19.96-2.33.99-1.78,5.56.72,4.76,4.24-1.35,8.46-2.66,12.62-3.98-2.53,1.7-5.06,3.5-7.59,5.17-1.67,1.1-3.44,2.14-5.17,3.22-15.34,8.97-34.18,16.16-52.99,18.17-5.28-.65-10.4-1.73-15.4-3.11-.17.96-.13,2.03.65,2.67,6.22,5.82,12.84,10.69,19.85,14.79,42.46,25,97.21,19.42,142.19-7.24-4.64,4.32-9.63,8.36-14.85,12.18-.65.24-1.24.6-1.98.8-.68.19-1.13.82-1.34,1.54-1.38.93-2.66,1.9-4.02,2.83-5.22,3.43-10.47,6.74-15.89,9.76-3.33,1.16-6.68,2.15-10.03,3.16.33,1.64,1.37,2.97,3.16,2.88,10.67-.69,21.44-1.21,32.14-2.14,21.8-1.89,43.42-5.59,63.85-16.61,11.64-6.35,22.83-14.51,33.35-23.95-7.26,11.52-15.18,22.57-23.6,32.41-.69.82.25,2.17.94,1.4,16.63-17.57,35.56-35.97,47.29-59.36-.2,1.56-.52,3.08-.72,4.65-.83,5.6-1.65,11.21-2.66,16.67-3.54,19.2-5.52,42.2-13.04,60.77-3.54,6.3-7.07,12.64-11.32,18.37-.52.71-.16,2.12.74,1.78,2.47-.87,4.65-2,6.73-3.24,6.87-4.02,12.16-9.63,18.32-17,13.17-15.98,29.03-27.78,41.83-44.43,2.53-3.18,5.03-6.71,7.5-10.45-3.02,9.85-6.74,19.08-11.55,26.95-.64,1.08.76,2.18,1.43,1.12,9.18-13.64,15.05-27.27,19.66-43.2,2.53,5.63,5.34,10.92,8.27,16.06,7.56,13.61,16.12,25.85,25.27,37.87,6.77,8.9,13.85,17.7,20.92,26.91.77.97,1.92-.36,1.32-1.45-1.59-2.58-2.94-5.34-4.49-8.05,3.17,4.39,6.35,8.66,9.55,13.01.82,1.15,2.15-.13,1.76-1.49-6.16-19.8-11.06-39.29-14.6-59.12,7.04,3.87,14.47,7.72,22.1,11.38,12.12,8.96,44.27,18.81,42.32,16.56,28.05,8.16,56.53,10.04,81.08-1.98,4.68-2.31,9.26-4.97,13.63-8.36,2.2-1.7,2.17-7.02-1.04-6.77-4.42.28-9.05.46-13.85.49-3.44-.38-6.77-.98-10.06-1.7-8.75-2-17.05-5.25-25.03-9.65,7.68,1.34,15.37,2.03,22.9,1.98,12.38,2.14,24.64,3.52,36.95,4.07.32.14.58.23.83.36,6.43,2.75,12.98,5.17,19.6,7.24-.52,1.19-1.46,2.22-2.99,2.69-.61.22-1.27.31-1.95.49,6.55.35,13.11.64,19.63,1.04,6.35,1.62,12.62,2.81,18.91,3.76,11.31,1.65,22.6,2.5,34.24,2.37,8.14-.11,16.8.16,25.21-.75,6.9-.8,13.63-2.31,19.66-5.63,3.05-.33,6.1-.72,9.15-1.16.93-.14,1.32-1.7.22-1.87-25.33-3.6-50.07-3.32-73.85-13.34.16,0,.35.02.52.02,21.73,1.37,46.22,1.26,66.98-5.03,9.18-2.81,17.69-6.77,24.91-12.42,3.33-2.59,6.32-5.56,9.04-8.91,1.43-1.74-.44-4.46-2.39-3.19Z" style="fill:url(#linear-gradient-3); opacity:.3;"/><path d="M362.48,399.72c26.62,10.44,49.72,2.92,73.45-12.45-11.13,14.24-23.31,26.89-36.68,36.95-6.55,4.93-13.39,9.26-20.55,12.82,4.09-.65,8-1.38,11.68-2.15,11.74-2.36,23.51-6.02,34.57-11.54,10.89-5.39,33.6-23.38,43.17-32.08-6.79,23.89-30.06,56.67-27.93,55.07,24.85-18.87,32.99-30.82,46.09-53.16.41,31.82-4.02,63.82-1.24,95.72.27,3.11-1.74,9.92.22,7.65,8.44-9.77,42.24-91.15,47.19-100.31,6.43,23.18,27.06,65.69,27.64,63.76,5.19-18.07,2.39-37.92,1.29-56.94,14.02,14.52,52.71,32.85,49.82,29.61-25.43-29.18-49.82-68.11-53.45-112.3-.28-3.6-9.15,39.95-11.58,61.38-12.45-21.51-16.22-78.51-17.66-75.65-13.2,26.53-20.37,56.51-31.92,84-3.57-21.59,5.03-72.9,2.88-70.72-7.17,7.39-13.19,15.97-19.61,24.33-5.52,7.18-12.01,12.89-18.75,18.21,8.05-14.08,20.92-47.74,19.82-45.95-10.61,17.52-27.89,29.34-46.25,36.87-4.18,3.1-8.47,5.82-12.92,8.2-10.53,5.56-21.78,9.26-33.43,10.47-3.14.35-2.89,5.5.09,5.93,10,1.43,19.79,1.07,29.29-.83-16.8,13.34-36.63,23.24-54.36,18.92-2.22-.55-3.02,3.38-.88,4.2Z" style="fill:url(#linear-gradient-4); mix-blend-mode:screen; opacity:.4;"/><path d="M407.05,305.21c.64,0,1.26-.08,1.9-.08.94-.35,1.92-.63,2.83-1.07.42.2.97.3,1.56.22,28.51-3.18,54.52-24.26,79.08-42.29-4.57,7.2-10.84,13.23-16,19-2.1,2.33-.39,7.72,2.53,7.23,18.13-3.11,35.25-17.57,48.48-33.96-1.48,8.5-3.73,16.8-4.4,25.54-.27,3.63,3.96,5.42,5.77,2.83,7.98-11.36,12.13-25.11,17.81-38.16,5.36,14.14,9.08,28.7,17,41.27,1.71,2.62,5,1.74,5.12-1.84.46-10.84-.39-21.53-.91-32.36,10.61,6.29,20.1,15.76,28.02,26.34,2.31,3.14,6-1.6,3.69-4.71-16.53-21.99-23.84-50.86-35.93-76.46-1.01-2.23-4.2-1.85-4.6.85-1.01,7.04-1.89,13.88-3.74,20.52-5.25-10.86-6.71-22.08-6.87-35.22-.09-2.99-3.08-4.51-4.75-2.34-6.55,8.66-11.44,18.92-17.57,27.94,2.59-21.03,7.78-41.41,9.98-62.52,1.52-14.63,2.44-29.53,2.47-44.35-.64.58-1.16,1.53-1.38,2.86-.3,2.22-.46,4.4-.69,6.6-1.13-.47-2.36-.33-3.54.13-1.62.61-3.08,2-3.54,4.16-10.95,46.86-22.57,125.47-69.95,138.18-1.04.28-.58,2.09.44,1.86,7.67-1.41,15.54-5.39,23.1-11.21-10.55,13.56-23.54,28.46-37.75,39.56-11.98,9.37-24.85,16.03-37.8,16.83-.13,0-.28.02-.42.02-.58.05-1.04.39-1.35.85-.82,1.31-.36,3.73,1.4,3.77Z" style="fill:url(#linear-gradient-5); mix-blend-mode:screen; opacity:.6;"/><path d="M702,584.13c-11.44-3.66-22.44-6.54-32.99-10.22-10.86-11.57-23.16-20.32-34.06-31.84-11.38-12.02-18.06-29.42-29.54-40.58-2.07-2.04-5.36-.8-5.33,2.85.05,7.39.11,7.4,1.18,14.63.94,6.68,4.67,27.33-5.12,10.91-4.42-7.42-7.01-15.93-12.62-22.27-1.3-1.48-3.05-.96-4.05.75-5.94,10.55-2.66,22.38-1.53,34.15-6.65-13.04-9.38-28.41-16.64-41.24-1.1-1.96-3.38-2.09-4.39.05-7.2,14.99-6.38,32.42-5.93,49.41-4.38-15.45-7.01-31.49-11.03-47.27-.65-2.53-3.38-2.94-4.48-.63-9.11,19.99-12.29,42.65-18.91,63.84-1.1-23.18.94-46.14,2.1-69.43.13-2.64-3.05-4.31-4.37-2.12-19.75,31.4-35.91,65.63-49.3,101.69,2.04-30.08,6.47-59.77,12.81-88.93.67-3.02-2.5-5.15-4.18-2.95-13.96,18.12-26.7,36.71-43.01,51.74-12.65,11.63-25.69,22.6-38.69,33.68,7.42-10.73,15.37-20.65,21.56-33,9.87-19.64,22.8-37.94,30.61-59,.66-1.78-.89-4.35-2.42-2.91-28.35,27-52.22,55.9-114.56,89.69,7.92-1.04,16.71-5.86,24.42-8.66,5.61-2.04,20.02-4.9,23.75-9.92-6.59,8.99-13.45,17.74-20.82,26.35-17.99,20.87-43.23,49.05-68.44,60.46-5.19,2.36-10.31,4.04-15.43,4.76-.33.06-.64.2-.91.33,33.08,11.05,72.43-1.1,101.65-18.12,13.53-7.9,26.46-17.6,38.23-29.04,4.45-4.34,8.71-8.99,12.92-13.73,2.59-2.81,5.03-5.85,7.29-9.16l1.64,7.56c-1.21,4.95-2.83,9.76-4.72,14.33-6,15.76-12.71,30.93-21.34,44.73-10.09,16.2-23.05,29.2-33.54,44.99-2.1,3.11,55.7-27.69,81.58-43.77,20.04-12.38,37.5-31.79,49.2-55.52-3.74,21.31-12.82,41.16-16.28,62.7-.53,3.21,2.69,5.89,4.64,3.21,10.28-13.91,16.74-30.57,23.9-47.02,6.87-15.7,12.97-35.41,22.87-48.86,6.55,22.68,7.78,49.72,22.84,66.6,1.49,1.73,4.21,1.02,4.73-1.68,2.59-14.81-3.72-40.56,3.18-54.33,5.39,15.56,12.52,32.11,26.12,37.29,1.38.52,3.3-.72,3.5-2.58,1.62-14.22-3.87-26.15-7.18-39.15,5.12,6.73,10.51,13,16.91,18.1,1.84,1.4,3.33-1.01,3.11-3.02-.94-7.78-3.11-14.46-5.58-21.63-4.87-14.16-2.89-10.42,4.89-2.42,10,10.32,19.08,18.58,32.31,20.55.85.11,1.98-.99,1.27-2.18-5.52-9.02-10.94-17.6-14.99-27.5,21.31,18.86,46.28,31.21,72.87,28.49,1.4-.14,1.76-2.72.3-3.18Z" style="fill:url(#linear-gradient-6); mix-blend-mode:screen; opacity:.2;"/><path d="M463.52,445.36c-2.47,2.31-4.94,4.54-7.43,6.82-6.59,5.3-13.45,9.84-20.37,14.24,8.11-5.85,16.09-11.77,23.57-19.43.27-.28-.06-.8-.35-.56-11.22,9.79-23.56,16.23-35.88,23.53-13,7.62-23.64,19.13-35.83,28.49-13.01,10.03-27.37,16.64-42.1,21.59-6.85,2.28-14.27,3.33-21.44,5.11-7.01,1.16-14.08,1.93-21.28,2.23-.72.02-.85,1.29-.17,1.48,2.5.74,5.06,1.26,7.59,1.78-.68.99,0,2.67,1.07,2.7,6.98.47,14.11.19,21.18-.66,50.24-1.18,102.46-38.6,133.01-84.8.86-1.34-.36-3.69-1.59-2.51Z" style="fill:url(#linear-gradient-7); mix-blend-mode:screen; opacity:.4;"/><path d="M450.08,416.1c-4.86,3.74-9.4,7.62-13.75,11.5-16.83,10.26-34.89,16.03-53.29,20.66-27.27,6.87-53.76,3.49-81.22,4.35-.64.03-.9,1.1-.31,1.48,7.35,5.17,15.15,8.3,23.09,10.22,41.74,26.5,108.81,12.19,126.15-47.6.16-.47-.36-.85-.66-.61Z" style="fill:url(#linear-gradient-8); opacity:.5;"/><path d="M288.89,691.43c-2.92,1.01-5.85,2.06-8.85,3.16,8.85,1.1,17.51,1.13,24.83.23.3,0,.53-.05.82-.09-4.87,5.66-9.95,11.14-15.12,16.53-2.42,2.58-4.89,5.15-7.42,7.64-3.38,3.38-7.01,6.9-10.78,10.55,37.15-11.02,70.42-31.16,99.48-57.49,13.26-8.27,24.39-19.06,30.72-33.32.22-.52-.3-1.3-.85-.85-22.77,18.69-49.85,31.35-77.41,39.56-28.13,8.42-51.64,4.95-74.21-10.73-.09.69-.03,1.43.38,2.07,7.65,14.13,22.58,20.27,38.41,22.74Z" style="fill:url(#linear-gradient-9); opacity:.5;"/><path d="M498.1,144.74l29.34-43.45-30.68-42.57c-.29-.41.21-.91.62-.62l42.57,30.68,43.45-29.34c.4-.27.89.21.61.61l-29.19,43.6,28.95,40.84c.29.41-.21.9-.62.62l-40.84-28.95-43.6,29.19c-.4.27-.89-.21-.61-.61h0Z" style="fill:#ffc300;"/><path d="M541.09,196.75l-15.75-81.19-81.71-13.27c-.78-.13-.78-1.25,0-1.38l81.71-13.26,15.75-81.19c.14-.75,1.22-.75,1.37,0l16.07,81.2,77.84,13.27c.77.13.77,1.24,0,1.38l-77.84,13.27-16.07,81.2c-.15.75-1.22.75-1.37,0h0Z" style="fill:#cf9f18;"/><path d="M541.29,45.71l-.16,12.45.04,3.01c.4.04.41.23.03.29-.14.85.02,1.67.04,2.54.09,4.04.21,8.07-.03,12.18-.03.56-.42.89-.12,1.59.15.37.03,1.18.03,1.66l.02,21.79h-22.81s-22.4.07-22.4.07l-6.78.11-19.78.15c-.96,0-1.77-.18-2.61.07,0-.14-.03-.26.05-.39.12-.19.28-.2.54-.25l24.1-3.96,31.93-5.27c2.02-.33,4.25-.33,5.97-1.16.01-.31-.13-.59-.2-.89.5-1.65.63-3.41.97-5.11l9.05-46.48,1.61-8.48c.06-.3.3-.41.49-.45l.03,16.53Z" style="fill:url(#linear-gradient-10);"/><path d="M541.13,116.73l-.02,28.21c0,.31.49.27.55.26l-.25,26.48c0,.85.18,1.55-.12,2.24-.29-.03-.45-.13-.53-.57l-4.67-23.72-5.7-29.19c-.41-2.1-.68-4.25-1.25-6.3-.03-.12.06-.25,0-.37.49-.39.98-.83,1.47-1.32l10.09-10.12c.21-.06.28-.22.41-.17v14.57Z" style="fill:url(#linear-gradient-11);"/><path d="M613.25,101.57c.07.26-.15.55-.58.63l-51.49,8.85c-1.39.24-2.51.52-3.62.77-.86-.22-5.21.63-5.54.49-.08-.03-.15-.23-.23-.24-1.65-1.81-3.48-3.48-5.23-5.2-1.62-1.6-3.03-3.49-4.86-4.88,0-.19.11-.24.37-.24l23.71.02h31.08s16.39-.2,16.39-.2Z" style="fill:url(#linear-gradient-12);"/><path d="M551.96,80.87c-.14.17-.68.04-.8.33l-1.75,4.2c-.69,1.66-1.89.98-1.96,2.53-.14-.03-2.11.55-2.63-2.81-.05-.35-.68-.09-.78-.24-.24-.37.04-.96,0-1.39l-.66-6-1.34-12.53c-.14-1.31-.23-2.69-.25-4.13l-.15-15.09c-.04-.09-.3-.03-.36-.04l-.03-16.53c.26-.04.58,0,.68.49l10.02,51.2Z" style="fill:url(#linear-gradient-13);"/><path d="M550.56,130l-4.43,22.45-4.22,20.72c-.05.26-.02.4-.13.58s-.26.18-.49.16c.3-.69.11-1.39.12-2.24l.25-26.48.02-13.35c1.72-.14,1.7-1.12,2.38-1.3,1.92-.52,1.15-2.64,2.64-3.53-.74-.69,4.2,3.44,3.87,2.98Z" style="fill:url(#linear-gradient-14);"/><path d="M495.91,101.29c.53.44-1.38-.04-1.63.57l15.79.06,7.61-.06c-.08.03-.09.09.02.23-2.66,2.03-5.19,4.21-7.77,6.46-.19.17-.4.29-.25.52l-28.74-4.61-13.85-2.33c-.31-.05-.36-.35-.35-.51.83-.24,1.65-.06,2.61-.07l19.78-.15,6.78-.11Z" style="fill:#e6af35;"/><path d="M579.41,95.29c-.03.29-.32.33-.58.44-2.23.98-4.3,2.13-6.5,3.29l.04,2.18,23.56.12c.18,0,.43.12.63.09.14-.02.33.13.29.35h-31.08c-.52-.36,3.69-.03,3.79-.2-.08-.37-.34-1.04-.4-.39l-6.96-.02-7.62.04c.06-.62-.26-.66-.2,0l-9.75.03c-.04-.12-.08-.16-.13-.14.12-.28.45-.4.81-.58l15.94-7.56c.43-.2.87-.21.83-.61l17.32,2.96Z" style="fill:#fdf3ba;"/><path d="M542.04,64.97c-.36.03-.33.55-.33.93l.03,9.72.12,6.95c1.34-.05.46,2.03.59,2.56.17.67.88,1.04,1.36,1.44.61.51.85,1.76,1.79,1.82.55.04,2.8.07,2.98-.25.34.03.69.05,1.14-.08-.34-.15-.94-.26-1.14.08-.38-.04-.78-.12-1.15-.21.07-1.55,1.27-.86,1.96-2.53l1.75-4.2c.12-.29.66-.17.8-.33.15.76.54,1.6.57,2.38.08,1.94.56,3.76.97,5.91l5.94-5.92c.02.13,0,.26.01.39-1.28,1.15-2.5,2.44-3.75,3.79l-2.21,2.41-11.41,11.38c-.3,0-.47.59-.78.3-.07-.07-.13-.19-.17-.3l-.02-21.79c0-.49.12-1.29-.03-1.66-.3-.7.09-1.03.12-1.59.24-4.11.12-8.14.03-12.18-.02-.87-.18-1.69-.04-2.54.38-.05.37-.24-.03-.29l-.04-3.01.16-12.45c.06.01.32-.05.36.04l.15,15.09c.01,1.44.11,2.82.25,4.13Z" style="fill:url(#linear-gradient-15);"/><path d="M613.25,101.57l-16.39.19c.04-.23-.14-.37-.29-.35-.2.03-.45-.09-.63-.09l-23.56-.12-.04-2.18c2.2-1.16,4.27-2.31,6.5-3.29.25-.11.55-.16.58-.44l33.5,5.75c.29.05.3.4.34.54Z" style="fill:#fcdc70;"/><path d="M531.18,101.96l-10.03,8.98-11.46-1.88c-.15-.23.06-.35.25-.52,2.58-2.24,5.11-4.42,7.77-6.46-.11-.14-.1-.21-.02-.23.19,0,.36.08.63.08l12.87.03Z" style="fill:#f6d87f;"/><path d="M541.13,102.16c-.13-.05-.21.11-.41.17l-10.09,10.12c-.49.49-.98.93-1.47,1.32-.04-.09-.2-.08-.2-.16,0-.31.1-.91-.13-1.23-1.76-.48-3.59-.51-5.28-.89l-2.4-.54,10.03-8.98,2.28-.15,7.48-.04c.26,0,.19.26.19.38Z" style="fill:#ecb93a;"/><path d="M530.39,120.44c-.16-.1-.27,0-.45.11l-10.26,6.92-11.08,7.27c-.11-.49.3-.77.63-1.1l3.73-3.77c.06.08.4-.06.53-.19l7.84-7.91c2.75-2.17,5.12-5.31,7.82-7.64.56,2.06.84,4.2,1.25,6.3Z" style="fill:#eab335;"/><path d="M551.78,112.07c.08,0,.15.21.23.24.33.14,4.68-.71,5.54-.49l5.06,7.16c-.23.01-.42-.13-.74-.17l-1.26,1.71,2.21,2.95c-.97-.97-2.16-1.88-3.05-2.93s-1.91-2.07-2.99-3-1.87-2.28-3.18-3.26l-1.03,5.47c.36.03.48-.05.6-.15.17-.15.28.26.42.23.83-.19,1.43-.55,2.08-.82l.74,1.3c-.2-.34,1.2,3.45,1.88,4.12l-5.78-4.11c-.18.5-.31,1.02-.39,1.48-.56-.86-1.31-1.61-2.01-2.4.21.03.16-.13.03-.25l-1.48-1.46c.23-.79.88-1.15,1.35-1.75-.29.38.84-1.27.82-1.15.01-.1-.37-.17-.4-.3-.12-.7-.59-1.15-1.28-1.51.28-.49.76-.49,1.28-.6.2-.04.36-.35.51-.42.25-.12.58.11.84.13Z" style="fill:#f0be3f;"/><path d="M573.08,69.65c.39.46-3.99,4.34-4.45,4.83.01-.21-.14-.19-.25-.05l-2.42,2.29-6.53,6.52-5.94,5.92c-.41-2.15-.89-3.97-.97-5.91l20.22-13.52c.12-.08.27-.08.34-.08Z" style="fill:#e4ad30;"/><path d="M559.02,91.78c1.01.2,2.06.37,3.07.54.04.4-.4.41-.83.61l-15.94,7.56c-.36.17-.69.3-.81.58-.77.31-1.63.15-2.44.14l11.41-11.38c.11.25.1.52.22.93l5.31,1.02Z" style="fill:#fbe283;"/><path d="M528.95,113.6l-.55.56-3.39,3.25c-.25-.33-.56-.44-.53.03.07.26.2.43.18.53,0,0-2.51,2.44-2.27,2.15.79-1.13-1.63,1.07-1.84,1.24-1.39,1.16-2.65,3.42-4.36,4.16.04-.81.48-1.52.77-2.3l1.53-4.06,5.05-7.67c1.69.38,3.51.41,5.28.89.23.31.12.92.13,1.23Z" style="fill:#f3d077;"/><path d="M548.56,118.05c.48.33,1.14.86,1.57,1.33.71.79,1.45,1.54,2.01,2.4l-1.57,8.22c.34.46-4.6-3.68-3.87-2.98l-2.62-2.45c-.15-.21,1.23-2.69,1.4-2.9.42-.54.38-1.25.74-1.82,2.02-.33,1.57-1.73,2.34-1.8Z" style="fill:#f2ce70;"/><path d="M565,82.7c-2.02,3.03-4.17,6-5.99,9.08l-5.31-1.02c-.12-.41-.11-.68-.22-.93l2.21-2.41c1.24-1.35,2.47-2.64,3.75-3.79l1.86-1.66c1.3-.14,2.64-.22,3.93-.11-.2.45-.41.6-.38.72.01.05.04.15.15.11Z" style="fill:#f5d570;"/><path d="M529.34,90.59c-1.72.83-3.95.83-5.97,1.16l-5.9-8.45,1.97-2.28,9.9,9.56Z" style="fill:#e8b235;"/><path d="M516.42,74.89c-.27.46-.44.99-1.16,1.27l-4.04-3.92c-.74-.72-1.28-1.61-2.27-2.07l3.41,3.56c1.02,1.07,2.08,2,3.01,2.99l4.07,4.31-1.97,2.28-10.14-14.08c-.15-.21.01-.49.13-.56.46-.28,8.15,5.64,8.96,6.22Z" style="fill:#bf841c;"/><path d="M530.1,84.58c-.33,1.7-.47,3.46-.97,5.11-.32.22-.52-.22-.75-.46l-2.4-2.56c.31-.35-.42-2.6-.7-3.28-.9.29-1.61.6-2.29.31-.63-.68-1.42-1.33-2.08-1.97.45.03-.35-1.68-.24-2.22.54-.24,1.09-.25,1.53-.51l7.89,5.58Z" style="fill:#f7d872;"/><path d="M565,82.7c-.11.04-.14-.05-.15-.11-.03-.12.18-.27.38-.72-1.29-.12-2.62-.04-3.93.11l2.86-2.85,3.54-3.65.94-1c.46-.49,4.84-4.37,4.45-4.83.31,0,.34.47.15.74l-2.49,3.69-5.74,8.63Z" style="fill:#d59e29;"/><path d="M522.39,120.11l-1.26,1.47c2.01-2.35-9.22,9.35-8.17,8.29l-3.73,3.77c-.33.33-.74.61-.63,1.1-.12.08-.36-.09-.37-.22,0-.1-.04-.33.06-.47l10.2-14.89-1.53,4.06c-.29.78-.73,1.48-.77,2.3,1.7-.74,2.97-3,4.36-4.16.21-.18,2.63-2.37,1.84-1.24Z" style="fill:#c88b1f;"/><path d="M561.83,123.4l2.25,2.24c-.3.19-.63.42-1.02.57-.14.06-.05.47-.26.52-.16.04-.32.07-.54.14-.08.03.04.25-.02.34l-3.94-2.79c-.68-.67-2.08-4.46-1.88-4.12-.02-.76,2.36,1.22,2.28,1.13.41.44.9.41,1.43.65.66.29,1,1.12,1.69,1.32Z" style="fill:#e3aa2f;"/><path d="M516.42,74.89l5.79,4.12c-.44.26-.99.28-1.53.51-.11.53.69,2.24.24,2.22l-5.18-5.05c-.2-.04-.34-.13-.36.04-.93-.99-1.99-1.92-3.01-2.99l-3.41-3.56c.99.46,1.53,1.35,2.27,2.07l4.04,3.92c.73-.27.89-.81,1.16-1.27Z" style="fill:#e7b543;"/><path d="M564.08,125.64c1.2,1.2,2.65,2.18,3.79,3.3l3.92,3.85c.13.13.11.53.02.47-.32-.18-.74-.39-.96-.07l-8.6-5.98c.05-.08-.06-.31.02-.34.22-.07.37-.1.54-.14.21-.05.13-.45.26-.52.39-.15.72-.39,1.02-.57Z" style="fill:#ce9425;"/><path d="M570.85,133.19c.22-.32.64-.12.96.07.09.05.11-.35-.02-.47l-3.92-3.85-3.53-3.82c.36-.6,1.08-.95,1.36-1.6l7.42,10.41c.15.21.09.36.04.45-.37.69-2.24-1.14-2.31-1.19Z" style="fill:#bd8119;"/><path d="M562.61,118.99l3.08,4.53c-.28.65-.99.99-1.36,1.6l-1.52-1.64-2.21-2.95,1.26-1.71c.32.04.52.18.74.17Z" style="fill:#dba128;"/><path d="M565.78,101.77l-23.71-.02c-.27,0-.37.05-.37.24v9.08c.25.02.33.13.36.25.04.23-.21.15-.34.2v6.14c0,1.8-.09,3.48.07,5.22.13.02.37,0,.27.19-.53-.41-.37,2.87-.37,3.19-.16-.06-.13.13-.36.35l-.04-9.87c-.03-.08-.14-.08-.16-.03v-14.57c0-.12.07-.38-.19-.38l-7.48.04-2.28.15-12.87-.03c-.27,0-.43-.08-.63-.08l-7.61.06-15.79-.06c.24-.61,2.15-.13,1.63-.57l22.4-.07h22.81c.05.11.11.23.17.3.3.29.48-.3.78-.3.81.01,1.68.16,2.44-.14.05-.02.09.03.13.14l9.75-.03c-.06-.66.26-.62.2,0l7.62-.04,6.96.02c.06-.64.32.02.4.39-.1.17-4.3-.16-3.79.21Z" style="fill:#fcfeec;"/><path d="M520.92,81.73c.66.64,1.45,1.29,2.08,1.97.99,1.07,2.05,1.97,2.99,2.97l2.4,2.56c.23.24.43.68.75.46.07.3.21.58.2.89l-9.9-9.56-4.07-4.31c.02-.16.17-.08.36-.04l5.18,5.05Z" style="fill:#fbf6b0;"/><path d="M541.7,126.28l-.02,5.57-.02,13.35c-.06.01-.55.05-.55-.26l.02-28.21s.14-.04.16.03l.04,9.87c.23-.23.2-.41.36-.35Z" style="fill:#fcf5ac;"/><path d="M529.15,113.76c.06.12-.04.25,0,.37-2.7,2.33-5.07,5.47-7.82,7.64-.1-.02-.18-.09-.2-.19l1.26-1.47c-.25.29,2.27-2.14,2.27-2.15.02-.09-.11-.26-.18-.53-.03-.47.28-.36.53-.03l3.39-3.25.55-.56c0,.08.16.08.2.16Z" style="fill:#fbfdd2;"/><path d="M551.78,112.07c-.25-.02-.58-.25-.84-.13-.15.07-.31.38-.51.42-.52.11-1,.11-1.28.6.69.36,1.17.81,1.28,1.51.02.13.41.21.4.3.02-.12-1.11,1.53-.82,1.15-.46.6-1.11.96-1.35,1.75l1.48,1.46c.13.12.18.28-.03.25-.42-.48-1.08-1.01-1.57-1.33-.63-1.2-1.88-1.96-2.77-2.95l-2.25-2.51,1.32-3.49c.15-.4.57-.28.67-.44.39-.58.77-1.19,1.03-1.77,1.74,1.72,3.57,3.39,5.23,5.2Z" style="fill:#f9d763;"/><path d="M546.56,106.88c-.26.59-.64,1.19-1.03,1.77-.1.16-.52.04-.67.44l-1.32,3.49-1.48-1.25c-.03-.13-.11-.24-.37-.25v-9.08c1.83,1.39,3.24,3.29,4.87,4.88Z" style="fill:#fbe789;"/><path d="M547.45,87.94c.37.09.77.17,1.15.21-.19.32-2.43.29-2.98.25-.95-.06-1.18-1.32-1.79-1.82-.49-.4-1.19-.77-1.36-1.44-.13-.53.75-2.61-.59-2.56l-.12-6.95-.03-9.72c0-.37-.02-.9.33-.93l1.34,12.53.66,6c.05.43-.24,1.02,0,1.39.1.16.72-.11.78.24.52,3.36,2.49,2.78,2.63,2.81Z" style="fill:#fdf3b6;"/><path d="M542.06,123.09c.06-.05.3-.05.34.03.23.51,1.24,1.1,1.68,1.45l2.62,2.45c-1.49.89-.71,3.01-2.64,3.53-.68.18-.66,1.16-2.38,1.3l.02-5.57c0-.31-.16-3.6.37-3.19Z" style="fill:#f7cd48;"/><path d="M568.63,74.48l-.94,1-3.54,3.65-2.86,2.85-1.86,1.66c0-.13,0-.26-.01-.39l6.53-6.52,2.42-2.29c.11-.14.26-.17.25.05Z" style="fill:#fbe788;"/><path d="M548.6,88.14c.2-.34.8-.23,1.14-.08-.45.13-.8.12-1.14.08Z" style="fill:#fdf3b6;"/><path d="M521.32,121.77l-7.84,7.91c-.13.13-.47.27-.53.19-1.05,1.06,10.18-10.64,8.17-8.29.01.1.1.17.2.19Z" style="fill:#fdf08a;"/><path d="M556.79,117.54c-.11-.02-.23.05-.31.12-.68-.72-1.42-1.39-2.24-2.15l1.45,3.49c-.65.28-1.25.64-2.08.82-.14.03-.25-.38-.42-.23-.12.1-.24.18-.6.15l1.03-5.47c1.3.98,2.09,2.32,3.18,3.26Z" style="fill:#fbe387;"/><path d="M556.48,117.67c1.14,1.2,2.15,2.57,3.52,3.52.65.66,1.19,1.57,1.84,2.22-.69-.2-1.03-1.02-1.69-1.32-.53-.24-1.02-.21-1.43-.65.08.08-2.3-1.9-2.28-1.13l-.74-1.3-1.45-3.49c.83.77,1.56,1.44,2.24,2.15Z" style="fill:#fbd147;"/><path d="M562.82,123.48l1.52,1.64,3.53,3.82c-1.13-1.11-2.59-2.1-3.79-3.3l-2.25-2.24c-.65-.65-1.19-1.56-1.84-2.22-.13-.14-.21-.45-.22-.64.89,1.05,2.07,1.96,3.05,2.93Z" style="fill:#fdef87;"/><path d="M556.79,117.54c1.08.93,2.06,1.91,2.99,3,.02.19.09.5.22.64-1.37-.94-2.38-2.32-3.52-3.52.08-.07.2-.15.31-.12Z" style="fill:#faf9f0;"/><path d="M548.56,118.05c-.76.06-.32,1.46-2.34,1.8-.36.58-.31,1.28-.74,1.82-.16.21-1.55,2.69-1.4,2.9-.44-.35-1.45-.94-1.68-1.45.15-.31.31-.58.62-.99-.76-.19-.4-2.85-.43-3.52l1.33-1.26c.07-1.06,1.63-1.84,1.87-2.25.89.99,2.14,1.75,2.77,2.95Z" style="fill:#fae389;"/><path d="M525.98,86.67c-.94-1-2-1.91-2.99-2.97.68.3,1.39-.02,2.29-.31.28.68,1.01,2.93.7,3.28Z" style="fill:#fce683;"/><path d="M543.53,112.58l2.25,2.51c-.24.41-1.8,1.19-1.87,2.25l-1.33,1.26c.03.68-.33,3.33.43,3.52-.31.41-.46.68-.62.99-.03-.08-.28-.08-.34-.03.1-.19-.15-.17-.27-.19-.16-1.75-.07-3.43-.07-5.22v-6.14c.13-.05.38.03.34-.2l1.48,1.25Z" style="fill:#fbf4ab;"/></g></g></svg>