<?xml version="1.0" encoding="UTF-8"?>
<svg id="Layer_2" data-name="Layer 2" xmlns="http://www.w3.org/2000/svg" viewBox="0 0 751.14 741.53">
  <defs>
    <style>
      .cls-1 {
        fill: #ffc300;
      }
    </style>
  </defs>
  <g id="Layer_1-2" data-name="Layer 1">
    <g>
      <path class="cls-1" d="M213.26,537.87l113.65-168.33-118.85-164.92c-1.14-1.58.81-3.53,2.39-2.39l164.92,118.85,168.33-113.65c1.56-1.05,3.43.81,2.38,2.37l-113.09,168.9,112.14,158.21c1.12,1.57-.82,3.5-2.39,2.39l-158.21-112.14-168.9,113.09c-1.56,1.05-3.43-.82-2.37-2.38Z"/>
      <path class="cls-1" d="M379.78,739.34l-61-314.52L2.27,373.43c-3.03-.49-3.03-4.85,0-5.34l316.51-51.38L379.78,2.19c.56-2.91,4.73-2.92,5.31,0l62.26,314.53,301.54,51.39c3,.51,3,4.82,0,5.33l-301.54,51.39-62.26,314.53c-.58,2.91-4.74,2.9-5.31-.01Z"/>
    </g>
  </g>
</svg>