<?xml version="1.0" encoding="UTF-8"?>
<svg xmlns="http://www.w3.org/2000/svg" width="2500" height="2500" viewBox="0 0 2500 2500">
  <path fill-rule="evenodd" fill="white" fill-opacity="0.9" d="M 711.296875 1317.101562 L 753.132812 1317.101562 C 769.164062 1238.480469 838.699219 1179.328125 922.046875 1179.328125 C 938.402344 1179.328125 954.226562 1181.609375 969.21875 1185.871094 C 993.917969 1053.25 1110.230469 952.851562 1250 952.851562 C 1344.210938 952.851562 1427.75 998.460938 1479.78125 1068.808594 C 1501.660156 1061.96875 1524.929688 1058.28125 1549.070312 1058.28125 C 1677.191406 1058.28125 1781.039062 1162.128906 1781.039062 1290.25 C 1781.039062 1299.328125 1780.5 1308.289062 1779.488281 1317.101562 L 1788.710938 1317.101562 C 1851.96875 1317.101562 1903.730469 1368.859375 1903.730469 1432.121094 C 1903.730469 1495.390625 1851.96875 1547.148438 1788.710938 1547.148438 L 711.296875 1547.148438 C 648.03125 1547.148438 596.269531 1495.390625 596.269531 1432.121094 C 596.269531 1368.859375 648.03125 1317.101562 711.296875 1317.101562 "/>
</svg>
