<?xml version="1.0" encoding="UTF-8"?>
<svg xmlns="http://www.w3.org/2000/svg" xmlns:xlink="http://www.w3.org/1999/xlink" viewBox="0 0 500 500">
  <defs>
    <style>
      .cls-1 {
        fill: #fbe788;
      }

      .cls-2 {
        fill: #d59e29;
      }

      .cls-3 {
        fill: url(#linear-gradient-15);
      }

      .cls-4 {
        fill: url(#linear-gradient-13);
      }

      .cls-5 {
        fill: #f9d763;
      }

      .cls-6 {
        fill: #f2ce70;
      }

      .cls-7 {
        fill: #fbd147;
      }

      .cls-8 {
        fill: url(#linear-gradient-4);
      }

      .cls-8, .cls-9 {
        opacity: .4;
      }

      .cls-8, .cls-9, .cls-10, .cls-11 {
        mix-blend-mode: screen;
      }

      .cls-12 {
        fill: url(#linear-gradient-3);
        opacity: .3;
      }

      .cls-13 {
        fill: url(#linear-gradient-2);
      }

      .cls-14 {
        fill: #f0be3f;
      }

      .cls-15 {
        fill: #dba128;
      }

      .cls-16 {
        fill: #bd8119;
      }

      .cls-17 {
        fill: url(#linear-gradient-10);
      }

      .cls-18 {
        fill: url(#linear-gradient-12);
      }

      .cls-19 {
        fill: #f7cd48;
      }

      .cls-20 {
        fill: #fbe387;
      }

      .cls-21 {
        fill: #e7b543;
      }

      .cls-22 {
        fill: #faf9f0;
      }

      .cls-9 {
        fill: url(#linear-gradient-7);
      }

      .cls-23 {
        fill: #fdf08a;
      }

      .cls-24 {
        fill: #c88b1f;
      }

      .cls-25 {
        fill: url(#linear-gradient-9);
      }

      .cls-25, .cls-26 {
        opacity: .5;
      }

      .cls-27 {
        fill: #fdef87;
      }

      .cls-28 {
        fill: #ffc300;
      }

      .cls-29 {
        fill: #f7d872;
      }

      .cls-30 {
        fill: #fbf6b0;
      }

      .cls-31 {
        fill: #fbe789;
      }

      .cls-32 {
        isolation: isolate;
      }

      .cls-26 {
        fill: url(#linear-gradient-8);
      }

      .cls-33 {
        fill: #fdf3b6;
      }

      .cls-34 {
        fill: #fce683;
      }

      .cls-35 {
        fill: #fcf5ac;
      }

      .cls-36 {
        fill: #cf9f18;
      }

      .cls-37 {
        fill: #e4ad30;
      }

      .cls-38 {
        fill: #f3d077;
      }

      .cls-39 {
        fill: #fbe283;
      }

      .cls-40 {
        fill: url(#linear-gradient-14);
      }

      .cls-10 {
        fill: url(#linear-gradient-5);
        opacity: .6;
      }

      .cls-41 {
        fill: #eab335;
      }

      .cls-42 {
        fill: #fbfdd2;
      }

      .cls-43 {
        fill: url(#linear-gradient-11);
      }

      .cls-44 {
        fill: #ce9425;
      }

      .cls-45 {
        fill: #fdf3ba;
      }

      .cls-46 {
        fill: #bf841c;
      }

      .cls-47 {
        fill: #fae389;
      }

      .cls-48 {
        fill: #fbf4ab;
      }

      .cls-49 {
        fill: #ecb93a;
      }

      .cls-11 {
        fill: url(#linear-gradient-6);
        opacity: .2;
      }

      .cls-50 {
        fill: #e8b235;
      }

      .cls-51 {
        fill: #e6af35;
      }

      .cls-52 {
        fill: #f5d570;
      }

      .cls-53 {
        fill: #e3aa2f;
      }

      .cls-54 {
        fill: #f6d87f;
      }

      .cls-55 {
        fill: url(#linear-gradient);
      }

      .cls-56 {
        fill: #fcfeec;
      }

      .cls-57 {
        fill: #fcdc70;
      }
    </style>
    <linearGradient id="linear-gradient" x1="226.78" y1="450.03" x2="273.21" y2="450.03" gradientUnits="userSpaceOnUse">
      <stop offset="0" stop-color="#7f8014"/>
      <stop offset=".3" stop-color="#5e5009"/>
      <stop offset=".7" stop-color="#3c3c17"/>
      <stop offset="1" stop-color="#003548"/>
    </linearGradient>
    <linearGradient id="linear-gradient-2" x1="244.78" y1="471.42" x2="278.48" y2="55.66" gradientUnits="userSpaceOnUse">
      <stop offset=".01" stop-color="#0a6c60"/>
      <stop offset="1" stop-color="#00872d"/>
    </linearGradient>
    <linearGradient id="linear-gradient-3" x1="132.58" y1="254.58" x2="442.35" y2="403.05" gradientUnits="userSpaceOnUse">
      <stop offset="0" stop-color="#00562e"/>
      <stop offset=".71" stop-color="#2c4984"/>
      <stop offset="1" stop-color="#005075"/>
    </linearGradient>
    <linearGradient id="linear-gradient-4" x1="184.84" y1="223.79" x2="249.41" y2="194.66" gradientUnits="userSpaceOnUse">
      <stop offset="0" stop-color="#eef65d"/>
      <stop offset=".99" stop-color="#004e40"/>
    </linearGradient>
    <linearGradient id="linear-gradient-5" x1="192.23" y1="149.12" x2="257.79" y2="103.03" xlink:href="#linear-gradient-4"/>
    <linearGradient id="linear-gradient-6" x1="154.58" y1="356.7" x2="258.1" y2="281.13" xlink:href="#linear-gradient-4"/>
    <linearGradient id="linear-gradient-7" x1="130.01" y1="249.11" x2="212.42" y2="249.11" xlink:href="#linear-gradient-4"/>
    <linearGradient id="linear-gradient-8" x1="175.73" y1="210.07" x2="149.15" y2="252.35" xlink:href="#linear-gradient-3"/>
    <linearGradient id="linear-gradient-9" x1="112.42" y1="304.92" x2="247.01" y2="464.43" xlink:href="#linear-gradient-3"/>
    <linearGradient id="linear-gradient-10" x1="72.5" y1="71.23" x2="213.63" y2="212.94" gradientTransform="translate(228.41 32.25) scale(.1)" gradientUnits="userSpaceOnUse">
      <stop offset="0" stop-color="#b37713"/>
      <stop offset="1" stop-color="#fbcd41"/>
    </linearGradient>
    <linearGradient id="linear-gradient-11" x1="135.97" y1="334.09" x2="270.74" y2="454.91" gradientTransform="translate(228.41 32.25) scale(.1)" gradientUnits="userSpaceOnUse">
      <stop offset="0" stop-color="#b87d1a"/>
      <stop offset="1" stop-color="#f1b935"/>
    </linearGradient>
    <linearGradient id="linear-gradient-12" x1="351.38" y1="144.89" x2="464.07" y2="268.14" gradientTransform="translate(228.41 32.25) scale(.1)" gradientUnits="userSpaceOnUse">
      <stop offset="0" stop-color="#f8c53b"/>
      <stop offset="1" stop-color="#b97c16"/>
    </linearGradient>
    <linearGradient id="linear-gradient-13" x1="271.36" y1="-42.9" x2="190.1" y2="66.16" gradientTransform="translate(228.41 32.25) scale(.1)" gradientUnits="userSpaceOnUse">
      <stop offset="0" stop-color="#eab435"/>
      <stop offset="1" stop-color="#fbe482"/>
    </linearGradient>
    <linearGradient id="linear-gradient-14" x1="207.68" y1="427.07" x2="259.67" y2="499.3" gradientTransform="translate(228.41 32.25) scale(.1)" gradientUnits="userSpaceOnUse">
      <stop offset="0" stop-color="#dea92f"/>
      <stop offset="1" stop-color="#b47a16"/>
    </linearGradient>
    <linearGradient id="linear-gradient-15" x1="217.05" y1="99.25" x2="180.08" y2="145.23" gradientTransform="translate(228.41 32.25) scale(.1)" gradientUnits="userSpaceOnUse">
      <stop offset="0" stop-color="#fbebac"/>
      <stop offset="1" stop-color="#fefbdf"/>
    </linearGradient>
  </defs>
  <g class="cls-32">
    <g id="Layer_1" data-name="Layer 1">
      <g>
        <g>
          <path class="cls-55" d="M232.59,407.97s-1.94,60.43-5.81,81.6c0,0,13.55,11.93,46.43,3.1,0,0-6.45-54.69-3.22-81.62,0,0-12.9-13.24-37.4-3.07Z"/>
          <g>
            <path class="cls-13" d="M432.37,419.68c-1.52.95-3.1,1.76-4.68,2.51-10.65-.48-20.63-7.76-28.94-14.19-4.8-3.67-9.52-7.44-13.55-11.85,9.67,6.2,21.04,9.45,32.36,9.25.39,0,.44-.59.08-.71-8.37-2.51-16.1-5.34-23.2-9.32,9.83-.34,20.32-1.68,27.85-7.89.36-.29.28-1-.25-1-.49.03-.99.11-1.48.14h-.02c-14.11,2.14-29.09-3.02-42.37-11,4.77-2.53,9.37-5.43,13.56-8.24,5.45-3.66,14.87-12.01,13.43-19.82-.22-1.11-1.58-.83-1.86.02-.63,1.81-1.73,3.55-3.12,5.22-6.82,3.81-15.1,3.68-22.79,3.44,7.17-1.8,13.9-5.24,19.52-11.12,1.1-.67,2.18-1.45,3.24-2.33.37-.32.29-1.04-.12-1.22.09-.09.18-.17.25-.27.3-.42.1-1.34-.42-1.25-2.34.42-4.61.86-6.9,1.37-10.8-.6-21.36-3.87-30.54-11.15-2.37-1.9-5.03-4.04-7.73-6.39,9.81,2.64,20.01,2.93,28.07,1.43.65-.11.92-1.38.15-1.57-4.71-1.13-9.38-2.27-14.05-3.58,7.58-.77,14.47-4.03,19-11.53.34-.6-.26-1.22-.7-1.12-5.36,1.24-11.03,1.61-16.79,1.32-13.27-5.16-28.42-18.03-36.15-27.48-1.34-1.62-2.56-3.35-3.77-5.08,10.94-1.25,23.67-4.96,29.8-15.05,1.14-1.8.13-5.05-2.01-4.17-1.16.5-2.35.93-3.55,1.35-1.11.15-2.17.25-3.25.3-8.63-.56-18.01-3.74-26.21-8.54,3.63-.11,7.19-1.15,10.46-3.24,1.58-.42,3.13-1.19,4.58-2.48.39-.3.28-1.18-.24-1.13.13-.13.26-.21.39-.34.33-.39.06-1.18-.4-1.13-4.01.42-7.68.13-11.11-.66-3.86-2.03-7.44-5.11-10.79-8.48,9.07,1.45,18.3,1.31,25.22-2.43.4.06.86.17,1.27.21,1.11.15,1.65-1.01,1.61-2.15.54-.43,1.09-.83,1.58-1.31.56-.56.36-1.58-.39-1.66-1.84-.17-3.9-.31-6.08-.45-11.11-4.57-21.03-12.63-30.7-20.66-7.35-6.06-12.22-12.99-16.37-20.74,11.83,2.71,24.64,1.61,32.85-1.64.53-.21.59-.86.36-1.31-.03-.04-.03-.06-.06-.11-.09-.11-.18-.18-.32-.25h-.03c-.06-.02-.09-.07-.17-.07-.09,0-.18-.06-.28-.06-8.76-1.74-17.12-11.05-24.02-17.38-2.06-1.86-3.94-3.84-5.77-5.87,12.58,9.24,27.64,15.83,36.68,7.16.36-.37.41-1.25-.17-1.39-44.44-10.13-67.01-58.48-80.81-107.42-.63-2.23-3.58-2.56-3.97.07-.15,1.12-.23,2.22-.35,3.32-1.34-.56-3.13.29-3.56,2.16-5.52,23.61-11.37,63.21-35.24,69.61-.52.14-.29,1.05.22.93,3.86-.71,7.83-2.72,11.64-5.64-9.85,12.65-23.88,27.67-38.27,28.41-1.19.07-1.17,2.29.02,2.33,10.34.21,19.68-2.07,28.39-6.83-7.01,9.81-15.62,18.13-25.36,23.13-1.6.83-.97,3.78.77,3.24,10.4-3.25,20.36-9.02,28.63-17.58-.85,1.6-1.68,3.14-2.6,4.65-.88,1.26-1.72,2.51-2.6,3.81-9.37,13.13-22.42,21.49-36.66,22.99-1.58.17-1.46,2.77.05,2.98,5.04.72,9.97.54,14.76-.42-8.46,6.72-18.45,11.71-27.38,9.53-1.12-.28-1.52,1.7-.44,2.11,9.29,3.64,17.74,2.87,26.02-.45-8.59,7.24-18.23,12.91-27.56,12.58-1.2-.02-1.32,2.2-.12,2.33,6.51.69,12.68.36,18.66-1-10.35,7.39-22.09,11.71-35.62,11.14-.98-.05-1.52,1.12-1.46,2.18-1.6-.21-2.53,2.51-.99,3.52,9.94,6.63,20.6,9.37,31.38,9.33-7.4,4.56-15.56,7.17-23.93,7.32-1.59.04-1.69,2.64-.2,2.99,4.98,1.15,9.92,1.39,14.76.86-8.95,5.97-19.29,10.09-28.01,7.13-1.11-.35-1.66,1.57-.62,2.09,2.38,1.16,4.73,1.95,7.09,2.53-2.17.52-4.35.97-6.58,1.3-.82.12-1.27.8-1.38,1.54-1.54.03-3.09.05-4.59.06-2.26,0-2.63,4.13-.48,4.82,7.3,2.34,14.9,3.7,22.61,4.17-11.08,6.77-23.36,10.26-37.11,8.49-.98-.13-1.58.99-1.62,2.04-1.56-.33-2.7,2.3-1.24,3.44,12.41,9.83,26.62,13.08,41.04,11.96-1.5,1.2-3.01,2.32-4.51,3.41-14.03,9.95-29.12,16.63-45.16,17.53-.83.04-1.35.68-1.54,1.41-1.52-.11-3.04-.22-4.56-.33-2.26-.2-2.94,3.89-.82,4.76,7.54,3.14,15.56,5.26,23.71,6.32-1.33.41-2.68.77-4.01.94-1.15.19-1.73,1.17-1.8,2.2-2.14-.87-4.2-1.9-6.1-3.3-1.11-.8-2.46.87-1.72,2.2,3.86,7.12,11.38,10.21,19.35,11.46-5.39,1.92-10.86,3.71-16,6.73-.93.55-.45,2.36.53,2.05,8.05-2.6,16.21-4.02,24.05-7.26-3.63,4.23-7.43,8.34-11.47,12.32-11.85,11.72-29.39,28.33-44.63,29.16-1.14.07-1.8,1.01-1.97,2.04-2.03-1.06-3.99-2.27-5.82-3.84-1-.87-2.5.68-1.88,2.07,6.29,14.12,26.99,14.97,38.62,15.07,5.92.05,13.76-.91,21.56-3.05-5.94,4.49-12.87,7.29-19.3,10.05-1.17.5-.89,2.8.36,2.4,2.64-.85,5.27-1.65,7.88-2.49-11.49,7.88-24.57,11.94-37.53,12.63-.18,0-.34.06-.48.13-1.06-.47-2.14-.85-3.15-1.36-1.1-.54-1.81,1.43-.92,2.24,23.45,21.92,59.11,19.26,86.14.97-3.84,4.24-7.96,7.99-12.99,9.37-.64.16-.86,1.01-.74,1.67-4.48,1.14-9.06,2.31-13.64,3.9-1.93.65-2,4.71.21,4.58,16.33-1.04,33-1.17,48.36-9.44,5.87-3.2,11.5-7.31,16.8-12.07-3.66,5.8-7.65,11.37-11.89,16.32-.35.41.13,1.09.47.7,8.38-8.85,17.92-18.12,23.82-29.9-.49,3.6-1.04,7.24-1.7,10.74-1.78,9.67-2.78,21.26-6.57,30.61-1.78,3.17-3.56,6.37-5.7,9.25-.26.36-.08,1.07.37.89,5.33-1.98,8.57-5.36,12.62-10.2,6.63-8.05,14.62-14,21.07-22.38,1.27-1.6,2.53-3.38,3.78-5.26-1.52,4.96-3.4,9.61-5.82,13.58-.32.55.38,1.1.72.56,4.62-6.87,7.58-13.74,9.9-21.76,7.17,15.85,17.19,27.46,27.43,40.72.39.49.97-.18.67-.73-.8-1.3-1.48-2.69-2.26-4.05,1.6,2.21,3.2,4.36,4.81,6.56.41.58,1.08-.06.89-.75-3.1-9.98-5.57-19.79-7.35-29.78,24.41,13.4,57.21,26.62,80.16,8.87,1.11-.86,1.09-3.54-.52-3.41-2.22.14-4.56.23-6.97.25-6.34-.69-12.14-2.63-17.68-5.72,7.88,1.35,15.78,1.44,23.18-.37,7.37,4.16,15.57,6.94,23.53,9.1,9.27,2.51,18.38,3.46,27.91,3.36,7.47-.07,15.83.47,22.6-3.21,1.54-.17,3.07-.36,4.61-.59.47-.07.67-.85.11-.94-12.76-1.81-25.22-1.67-37.2-6.72,18.11,1.16,40.15.33,51.1-13.27.72-.88-.22-2.25-1.2-1.61Z"/>
            <path class="cls-12" d="M432.37,419.68c-1.52.95-3.1,1.76-4.68,2.51-10.65-.48-20.63-7.76-28.94-14.19-4.8-3.67-9.52-7.44-13.55-11.85,9.67,6.2,21.04,9.45,32.36,9.25.39,0,.44-.59.08-.71-8.37-2.51-16.1-5.34-23.2-9.32,9.83-.34,20.32-1.68,27.85-7.89.25-.19.28-.56.12-.78-.07-.12-.18-.21-.36-.21-.49.03-.99.11-1.5.13-7.93,1.2-16.08.05-24.08-2.54-6.29-2.02-12.46-4.95-18.3-8.46,1.8-.93,3.5-1.97,5.26-3.02,2.87-1.71,5.68-3.48,8.3-5.23,2.44-1.63,5.65-4.23,8.37-7.26,1.84-2.1,3.44-4.42,4.36-6.81.74-1.9,1.04-3.84.7-5.75-.22-1.11-1.58-.83-1.86.02-.63,1.81-1.73,3.55-3.12,5.22-6.82,3.81-15.1,3.68-22.79,3.44,5.07-1.27,9.85-3.44,14.23-6.63.13-.11.28-.2.4-.29.32-.25.7-.47,1.03-.74-.08.02-.13.05-.2.06.63-.5,1.29-.99,1.9-1.56.72-.65,1.47-1.23,2.15-1.95,1.1-.67,2.18-1.45,3.24-2.33.37-.32.29-1.04-.12-1.22.09-.09.18-.17.25-.27.3-.42.1-1.34-.42-1.25-2.34.42-4.61.86-6.9,1.37-7.74-.42-15.33-2.26-22.4-5.93-2.81-1.46-5.52-3.17-8.14-5.22-2.37-1.9-5.03-4.04-7.73-6.39,9.81,2.64,20.01,2.93,28.07,1.43.65-.11.92-1.38.15-1.57-4.71-1.13-9.38-2.27-14.05-3.58,5.75-.59,11.11-2.6,15.33-6.85,1.34-1.33,2.56-2.89,3.67-4.68.34-.6-.26-1.22-.7-1.12-5.36,1.24-11.03,1.61-16.79,1.32-2.57-1.01-5.23-2.37-7.88-3.86-11.01-6.23-22.06-16-28.27-23.61-1.34-1.62-2.56-3.35-3.77-5.08,10.42-1.19,22.38-4.67,28.83-13.7.31-.47.7-.86.97-1.35,1.14-1.8.13-5.05-2.01-4.17-1.16.5-2.35.93-3.55,1.35-1.11.15-2.17.25-3.25.3-8.63-.56-18.01-3.74-26.21-8.54.82-.03,1.62-.11,2.42-.22,2.22-.33,4.38-1.06,6.44-2.16.54-.26,1.08-.54,1.6-.86,1.58-.42,3.13-1.19,4.58-2.48.39-.3.28-1.18-.24-1.13.13-.13.26-.21.39-.34.33-.39.06-1.18-.4-1.13-4.01.42-7.68.13-11.11-.66-3.86-2.03-7.44-5.11-10.79-8.48.41.06.82.1,1.26.17,8.66,1.26,17.35.98,23.96-2.6.4.06.86.17,1.27.21.62.09,1.03-.26,1.29-.75.21-.38.34-.89.32-1.4.54-.43,1.09-.83,1.58-1.31.56-.56.36-1.58-.39-1.66-1.84-.17-3.9-.31-6.08-.45-6.14-2.51-11.91-6.13-17.48-10.2-4.53-3.28-8.91-6.87-13.22-10.47-7.35-6.06-12.22-12.99-16.37-20.74,10.23,2.36,21.19,1.83,29.27-.45,1.27-.36,2.49-.75,3.59-1.19.53-.21.59-.86.3-1.42-.09-.11-.18-.18-.35-.25-.06-.02-.09-.07-.17-.07-.09,0-.18-.06-.28-.06-8.76-1.74-17.12-11.05-24.02-17.38-2.06-1.86-3.94-3.84-5.77-5.87,12.58,9.24,27.64,15.83,36.68,7.16.36-.37.41-1.25-.17-1.39-1.09-.24-2.09-.62-3.13-.9-.12.06-.21.15-.33.22-1.2-.05-2.38-.16-3.55-.4-7.47-1.5-15.18-5.22-21.92-9.26-14.33-8.57-22.71-22.9-32.73-37.41-.55-.81-1.75.09-1.46,1.07,2.93,8.63,7.2,16.48,12.27,23.46,2.42,5.96,5.23,11.27,8.61,15.8-.83-.61-1.65-1.23-2.45-1.89-4.7-3.93-9.17-9.18-14.27-12.15-.97-.55-1.8.85-1.09,1.81,1.83,2.6,3.74,5.04,5.74,7.4,7.81,9.99,16.02,18.57,25.65,24.72-2.35-.23-4.74-.58-7.25-1.16-13.63-3.21-25.09-9.63-34.37-22.55-.59-.77-1.68.3-1.19,1.16,2.4,4.1,4.83,8.07,7.54,11.75,10.49,20.1,23.96,37.71,39.77,49.19-12.61-7.43-23.69-16.6-34.33-28.31-.93-1-2.03.52-1.31,1.66,3.36,5.04,6.36,9.73,9.78,14.01,9.84,15.44,21.96,30.85,36.06,39.43-10.16-2.39-22.95-11.3-30.44-19.92-.59-.68-1.63.28-1.11,1.11,2.07,3.31,4.38,6.33,6.86,9.03,2.63,3.89,4.98,7.72,8.57,11.11,4.73,4.47,10.01,8.06,15.43,11.07-18.63-4.82-37.58-19.83-50.45-37.08-1.08-1.42-2.56.47-2.01,1.97,1.45,3.93,3.74,7.58,6.35,10.94,2.39,4.8,4.58,9.63,6.91,14.35-.19.1-.36.37-.22.66,1.5,2.93,3.04,5.84,4.67,8.64-4.53-5.02-8.81-10.36-13.06-15.67-1.04-2.24-2.01-4.49-2.79-6.82-.17-.59-1.06-.56-.95.18,1.12,9.91,4.69,20.5,10.12,28.03.88,1.24,2.57-.13,2.2-1.65-.89-3.48-2.26-6.76-3.78-9.96,4.26,6.59,8.61,12.77,14.16,18.48,2.5,2.57,5.28,4.88,8.17,6.99,3.87,4.72,7.86,9.29,12.06,13.83,7.32,7.99,16.5,12.9,25.48,17.44,8.69,4.38,18.09,7.87,27.64,9.65-15.62,1.6-32.75,1.84-46.12-8.13-.71-.55-1.77.61-1.19,1.51,1.92,3.06,4.12,5.26,6.52,7.02,10.15,11.2,23.05,19.89,35.75,24.99,3.69,1.47,7.59,2.96,11.57,4.31-18.97-2.73-39.3-3.22-54.83-16.77-1.15-1.24-2.21-2.51-3.13-3.83-.53-1.08-1.04-2.12-1.47-3.22-.18-.4-.52-.62-.89-.78-.75-1.54-1.29-3.11-1.61-4.69-.18-1.01-1.6-.71-1.6.25.03,4.86,1.16,9.22,3.1,13.12,6.02,18.13,26.66,30.88,41.93,37.71,4.61,2.06,9.39,3.45,14.29,4.38-14.12,1.14-28.2-.02-41.7-4.08-3.86-1.37-7.62-2.92-11.3-4.67,2.7,6.88,6.52,13.35,10.43,19.55,4.96,7.88,9.03,18.72,16.71,23.92,3.04,2.05-16.04-4.11-19.4-6.18-9.1-5.57-18.18-11.69-25.28-20.01-6-7.05-10.81-14.84-14.84-23.16-.05.42-.11.85-.15,1.27.54,4.01,1.16,8.11,2.16,11.99-.95-.95-1.87-1.9-2.79-2.85-3.13,18.79,1.11,33.61,6.4,36.82,1.34.82-9.69-3.57-12.01-5.7-8.09-7.48-13.47-18.66-17.35-29.13-.88-2.37-1.69-4.77-2.46-7.18-.4-1.28-2.49-5.87-2.04-7.05-.26.67-.51,1.33-.75,2.01-1.21,3.64-.93,8.43-1.1,12.22-.02.4-.02.85-.05,1.27-3.92,14.91,1.62,33.21,8.86,45.6,2.71,4.62,6.59,9.38,11.14,13.66-1.48-.66-2.95-1.34-4.44-1.94-.33-.15-.64-.29-.98-.42-.98-.89-1.98-1.78-2.91-2.75-9.56-9.93-16.62-23.25-20.75-36.96-.93-7.27-1.85-14.57-3.04-21.81-.05-.09-.08-.13-.12-.2-.14-1.02-.26-2.04-.52-2.99-.11-.51-.82-.49-.93,0-4.79,21.76-9.84,42.51-19.46,62.57-1.36,2.85-2.83,5.64-4.32,8.41.18-.86.43-1.74.63-2.59,1.96-8.6,2.55-17.67,3.24-26.46.67-8.67,1.72-17.26-1.61-25.4-.09-.24-.29-.36-.52-.43.05-1.09.11-2.15.05-3.28-.03-.59-.87-.73-1.01-.12-5.2,22.45-26.2,40.26-42.54,53.94-1.31,1.08-2.65,2.11-3.99,3.12,12.83-15.21,24.39-37.27,23.87-56.95,0-.24-.17-.39-.36-.44-.08-.43-.67-.56-.87-.15-5.88,12.25-16.06,20.02-26.76,27.19-10.31,6.91-20.35,13.9-31.13,19.93-7.24,4.05-16.32,7.5-25.86,9.52,11.75-6.02,22.58-15.33,31.62-25.15,6.36-6.9,14.21-16.03,17.22-25.69,1.63-2.36,2.89-5.05,3.5-8.27.11-.49-.46-.87-.82-.49-12.73,14.4-31.18,19.37-48.82,24-9.74,2.56-20.36,2.64-30.21.73-.05,0-.08-.03-.12-.03-.7.09-1.37.2-2.04.23-1.14.07-1.8,1.01-1.97,2.04-2.03-1.06-3.99-2.27-5.82-3.84-1-.87-2.5.68-1.88,2.07.63,1.39,1.42,2.63,2.3,3.79,8.05,10.45,25.82,11.2,36.31,11.27,5.92.05,13.76-.91,21.56-3.05-5.94,4.49-12.87,7.29-19.3,10.05-1.17.5-.89,2.8.36,2.4,2.14-.68,4.26-1.34,6.36-2-1.27.86-2.55,1.77-3.82,2.6-.84.55-1.73,1.08-2.6,1.62-7.73,4.52-17.22,8.14-26.69,9.15-2.66-.33-5.24-.87-7.76-1.57-.09.48-.06,1.02.33,1.35,3.13,2.93,6.47,5.38,10,7.45,21.39,12.6,48.97,9.78,71.63-3.65-2.34,2.18-4.85,4.21-7.48,6.14-.33.12-.63.3-1,.4-.34.09-.57.41-.67.78-.7.47-1.34.96-2.03,1.43-2.63,1.73-5.27,3.4-8,4.92-1.68.59-3.36,1.08-5.05,1.59.17.82.69,1.5,1.59,1.45,5.38-.35,10.8-.61,16.19-1.08,10.98-.95,21.87-2.82,32.17-8.37,5.87-3.2,11.5-7.31,16.8-12.07-3.66,5.8-7.65,11.37-11.89,16.32-.35.41.13,1.09.47.7,8.38-8.85,17.92-18.12,23.82-29.9-.1.78-.26,1.55-.36,2.34-.42,2.82-.83,5.64-1.34,8.4-1.78,9.67-2.78,21.26-6.57,30.61-1.78,3.17-3.56,6.37-5.7,9.25-.26.36-.08,1.07.37.89,1.24-.44,2.34-1.01,3.39-1.63,3.46-2.03,6.13-4.85,9.23-8.57,6.63-8.05,14.62-14,21.07-22.38,1.27-1.6,2.53-3.38,3.78-5.26-1.52,4.96-3.4,9.61-5.82,13.58-.32.55.38,1.1.72.56,4.62-6.87,7.58-13.74,9.9-21.76,1.28,2.83,2.69,5.5,4.16,8.09,3.81,6.86,8.12,13.02,12.73,19.08,3.41,4.48,6.98,8.91,10.54,13.55.39.49.97-.18.67-.73-.8-1.3-1.48-2.69-2.26-4.05,1.6,2.21,3.2,4.36,4.81,6.56.41.58,1.08-.06.89-.75-3.1-9.98-5.57-19.79-7.35-29.78,3.55,1.95,7.29,3.89,11.13,5.73,6.1,4.51,22.3,9.48,21.32,8.34,14.13,4.11,28.48,5.06,40.84-1,2.36-1.16,4.66-2.5,6.86-4.21,1.11-.86,1.09-3.54-.52-3.41-2.22.14-4.56.23-6.97.25-1.73-.19-3.41-.49-5.07-.86-4.41-1.01-8.59-2.64-12.61-4.86,3.87.67,7.74,1.02,11.53,1,6.24,1.08,12.41,1.77,18.61,2.05.16.07.29.12.42.18,3.24,1.39,6.54,2.6,9.87,3.65-.26.6-.74,1.12-1.5,1.35-.31.11-.64.16-.98.25,3.3.17,6.6.32,9.89.52,3.2.82,6.36,1.42,9.52,1.89,5.7.83,11.38,1.26,17.25,1.2,4.1-.06,8.46.08,12.7-.38,3.48-.4,6.86-1.16,9.9-2.83,1.54-.17,3.07-.36,4.61-.59.47-.07.67-.85.11-.94-12.76-1.81-25.22-1.67-37.2-6.72.08,0,.17,0,.26,0,10.95.69,23.28.63,33.74-2.53,4.62-1.42,8.91-3.41,12.55-6.25,1.68-1.31,3.18-2.8,4.55-4.49.72-.88-.22-2.25-1.2-1.61Z"/>
            <path class="cls-8" d="M160.58,203.99c13.41,5.26,25.05,1.47,37-6.27-5.61,7.17-11.74,13.55-18.48,18.61-3.3,2.49-6.74,4.66-10.35,6.46,2.06-.33,4.03-.7,5.88-1.08,5.91-1.19,11.84-3.03,17.42-5.81,5.49-2.72,16.93-11.78,21.75-16.16-3.42,12.03-15.14,28.55-14.07,27.74,12.52-9.51,16.62-15.52,23.22-26.78.21,16.03-2.03,32.15-.63,48.22.13,1.57-.88,5,.11,3.86,4.25-4.92,21.28-45.92,23.77-50.53,3.24,11.68,13.63,33.09,13.92,32.12,2.61-9.1,1.2-19.1.65-28.68,7.06,7.32,26.55,16.55,25.1,14.92-12.81-14.7-25.1-34.31-26.92-56.57-.14-1.81-4.61,20.12-5.83,30.92-6.27-10.84-8.17-39.55-8.9-38.11-6.65,13.36-10.26,28.47-16.08,42.32-1.8-10.88,2.53-36.73,1.45-35.63-3.61,3.72-6.64,8.04-9.88,12.26-2.78,3.62-6.05,6.49-9.44,9.18,4.05-7.09,10.54-24.05,9.98-23.15-5.34,8.83-14.05,14.78-23.3,18.57-2.11,1.56-4.27,2.93-6.51,4.13-5.3,2.8-10.97,4.66-16.84,5.27-1.58.17-1.46,2.77.05,2.98,5.04.72,9.97.54,14.76-.42-8.46,6.72-18.45,11.71-27.38,9.53-1.12-.28-1.52,1.7-.44,2.11Z"/>
            <path class="cls-10" d="M183.03,156.38c.32,0,.63-.04.96-.04.48-.17.97-.32,1.42-.54.21.1.49.15.78.11,14.36-1.6,27.46-12.22,39.84-21.3-2.3,3.63-5.46,6.67-8.06,9.57-1.06,1.17-.2,3.89,1.28,3.64,9.14-1.57,17.76-8.85,24.42-17.11-.74,4.28-1.88,8.46-2.22,12.86-.13,1.83,2,2.73,2.91,1.43,4.02-5.72,6.11-12.65,8.97-19.22,2.7,7.12,4.58,14.46,8.57,20.79.86,1.32,2.52.88,2.58-.93.23-5.46-.2-10.85-.46-16.3,5.34,3.17,10.13,7.94,14.12,13.27,1.16,1.58,3.02-.81,1.86-2.37-8.33-11.08-12.01-25.62-18.1-38.51-.51-1.12-2.11-.93-2.32.43-.51,3.55-.95,6.99-1.88,10.34-2.64-5.47-3.38-11.12-3.46-17.74-.05-1.5-1.55-2.27-2.39-1.18-3.3,4.36-5.76,9.53-8.85,14.08,1.31-10.59,3.92-20.86,5.03-31.49.77-7.37,1.23-14.88,1.24-22.34-.32.29-.59.77-.7,1.44-.15,1.12-.23,2.22-.35,3.32-.57-.24-1.19-.17-1.78.06-.82.31-1.55,1.01-1.78,2.1-5.52,23.61-11.37,63.21-35.24,69.61-.52.14-.29,1.05.22.93,3.86-.71,7.83-2.72,11.64-5.64-5.31,6.83-11.86,14.34-19.02,19.93-6.03,4.72-12.52,8.08-19.04,8.48-.06,0-.14,0-.21,0-.29.02-.52.2-.68.43-.41.66-.18,1.88.7,1.9Z"/>
            <path class="cls-11" d="M331.61,296.88c-5.76-1.84-11.3-3.29-16.62-5.15-5.47-5.83-11.67-10.24-17.16-16.04-5.73-6.06-9.1-14.82-14.88-20.44-1.04-1.03-2.7-.4-2.68,1.43.02,3.72.06,3.73.59,7.37.47,3.36,2.35,13.77-2.58,5.49-2.22-3.74-3.53-8.03-6.36-11.22-.66-.74-1.54-.48-2.04.38-2.99,5.31-1.34,11.27-.77,17.2-3.35-6.57-4.73-14.31-8.38-20.77-.55-.99-1.7-1.05-2.21.02-3.63,7.55-3.21,16.33-2.98,24.89-2.21-7.78-3.53-15.86-5.56-23.81-.33-1.27-1.7-1.48-2.26-.32-4.59,10.07-6.19,21.49-9.52,32.16-.55-11.68.48-23.24,1.06-34.98.06-1.33-1.54-2.17-2.2-1.07-9.95,15.82-18.09,33.06-24.83,51.23,1.03-15.15,3.26-30.11,6.45-44.8.34-1.52-1.26-2.6-2.11-1.49-7.03,9.13-13.45,18.49-21.67,26.06-6.37,5.86-12.94,11.38-19.49,16.97,3.74-5.41,7.74-10.4,10.86-16.63,4.97-9.9,11.49-19.11,15.42-29.72.33-.89-.45-2.19-1.22-1.46-14.28,13.6-26.31,28.16-57.71,45.18,3.99-.52,8.42-2.95,12.3-4.36,2.83-1.03,10.09-2.47,11.96-5-3.32,4.53-6.78,8.94-10.49,13.28-9.06,10.51-21.78,24.71-34.48,30.46-2.61,1.19-5.19,2.03-7.77,2.4-.17.03-.32.1-.46.17,16.66,5.57,36.49-.55,51.2-9.13,6.82-3.98,13.33-8.87,19.26-14.63,2.24-2.18,4.39-4.53,6.51-6.92,1.31-1.42,2.53-2.95,3.67-4.62l.82,3.81c-.61,2.49-1.42,4.92-2.38,7.22-3.02,7.94-6.4,15.58-10.75,22.53-5.08,8.16-11.61,14.71-16.89,22.67-1.06,1.57,28.06-13.95,41.1-22.05,10.09-6.24,18.89-16.02,24.79-27.97-1.88,10.73-6.46,20.73-8.2,31.59-.27,1.61,1.35,2.97,2.34,1.61,5.18-7.01,8.43-15.4,12.04-23.69,3.46-7.91,6.53-17.84,11.52-24.61,3.3,11.42,3.92,25.05,11.5,33.55.75.87,2.12.51,2.38-.85,1.31-7.46-1.88-20.43,1.6-27.37,2.71,7.84,6.31,16.17,13.16,18.79.7.26,1.66-.36,1.77-1.3.82-7.16-1.95-13.17-3.62-19.72,2.58,3.39,5.3,6.55,8.52,9.12.93.7,1.68-.51,1.57-1.52-.48-3.92-1.57-7.28-2.81-10.89-2.45-7.13-1.46-5.25,2.46-1.22,5.04,5.2,9.61,9.36,16.28,10.35.43.06,1-.5.64-1.1-2.78-4.54-5.51-8.87-7.55-13.85,10.74,9.5,23.31,15.72,36.71,14.35.7-.07.89-1.37.15-1.6Z"/>
            <path class="cls-9" d="M211.47,226.98c-1.24,1.16-2.49,2.29-3.74,3.44-3.32,2.67-6.78,4.96-10.26,7.17,4.09-2.95,8.11-5.93,11.88-9.79.13-.14-.03-.4-.17-.28-5.65,4.93-11.87,8.18-18.07,11.85-6.55,3.84-11.91,9.63-18.05,14.35-6.55,5.05-13.79,8.38-21.21,10.88-3.45,1.15-7.19,1.68-10.8,2.57-3.53.59-7.09.97-10.72,1.12-.36,0-.43.65-.09.74,1.26.37,2.55.63,3.82.89-.34.5,0,1.35.54,1.36,3.52.24,7.11.09,10.67-.33,25.31-.59,51.62-19.44,67.01-42.72.44-.67-.18-1.86-.8-1.27Z"/>
            <path class="cls-26" d="M204.7,212.24c-2.45,1.88-4.73,3.84-6.93,5.8-8.48,5.17-17.57,8.07-26.85,10.41-13.74,3.46-27.08,1.76-40.91,2.19-.32.02-.45.55-.16.74,3.7,2.6,7.63,4.18,11.63,5.15,21.03,13.35,54.81,6.14,63.55-23.98.08-.24-.18-.43-.33-.31Z"/>
            <path class="cls-25" d="M123.5,350.94c-1.47.51-2.94,1.04-4.46,1.59,4.46.55,8.82.57,12.51.12.15,0,.27-.02.41-.05-2.45,2.85-5.01,5.61-7.62,8.33-1.22,1.3-2.46,2.6-3.74,3.85-1.7,1.7-3.53,3.48-5.43,5.31,18.71-5.55,35.47-15.7,50.11-28.96,6.68-4.16,12.29-9.6,15.48-16.78.11-.26-.15-.66-.43-.43-11.47,9.41-25.11,15.79-39,19.93-14.17,4.24-26.01,2.49-37.38-5.41-.05.35-.02.72.19,1.04,3.86,7.12,11.38,10.21,19.35,11.46Z"/>
          </g>
        </g>
        <g id="Layer_1-2" data-name="Layer 1-2">
          <g>
            <path class="cls-28" d="M228.2,76.25l15.26-22.61-15.96-22.15c-.15-.21.11-.47.32-.32l22.15,15.96,22.61-15.26c.21-.14.46.11.32.32l-15.19,22.69,15.06,21.25c.15.21-.11.47-.32.32l-21.25-15.06-22.69,15.19c-.21.14-.46-.11-.32-.32h0Z"/>
            <path class="cls-36" d="M250.57,103.31l-8.19-42.24-42.51-6.9c-.41-.07-.41-.65,0-.72l42.51-6.9,8.19-42.24c.08-.39.64-.39.71,0l8.36,42.25,40.5,6.9c.4.07.4.65,0,.72l-40.5,6.9-8.36,42.25c-.08.39-.64.39-.71,0h0Z"/>
          </g>
        </g>
        <g id="Generative_Object" data-name="Generative Object">
          <path class="cls-17" d="M250.67,24.73l-.09,6.48.02,1.57c.21.02.21.12.01.15-.07.44,0,.87.02,1.32.05,2.1.11,4.2-.02,6.34-.02.29-.22.46-.06.83.08.19.02.61.02.87v11.34s-11.86,0-11.86,0l-11.66.04-3.53.06-10.29.08c-.5,0-.92-.09-1.36.03,0-.07-.02-.14.03-.2.06-.1.14-.11.28-.13l12.54-2.06,16.61-2.74c1.05-.17,2.21-.17,3.11-.61,0-.16-.07-.31-.1-.46.26-.86.33-1.77.5-2.66l4.71-24.18.84-4.41c.03-.15.15-.21.26-.23v8.6Z"/>
          <path class="cls-43" d="M250.59,61.68v14.68c-.01.16.24.14.27.14l-.13,13.78c0,.44.09.81-.06,1.17-.15-.01-.23-.07-.28-.3l-2.43-12.34-2.97-15.19c-.21-1.09-.36-2.21-.65-3.28-.02-.06.03-.13,0-.19.25-.2.51-.43.77-.69l5.25-5.26c.11-.03.15-.12.22-.09v7.58Z"/>
          <path class="cls-18" d="M288.11,53.8c.04.13-.08.29-.3.33l-26.79,4.61c-.72.12-1.31.27-1.88.4-.45-.11-2.71.33-2.88.26-.04-.02-.08-.12-.12-.13-.86-.94-1.81-1.81-2.72-2.7-.84-.83-1.58-1.82-2.53-2.54,0-.1.05-.12.2-.12h12.33s16.17,0,16.17,0l8.53-.1Z"/>
          <path class="cls-4" d="M256.22,43.03c-.07.09-.35.02-.42.17l-.91,2.19c-.36.86-.98.51-1.02,1.31-.07-.02-1.1.29-1.37-1.46-.03-.18-.35-.05-.4-.13-.12-.19.02-.5,0-.72l-.34-3.12-.7-6.52c-.07-.68-.12-1.4-.13-2.15l-.08-7.85s-.16-.01-.19-.02v-8.6c.12-.02.29,0,.34.26l5.21,26.64Z"/>
          <path class="cls-40" d="M255.5,68.59l-2.3,11.68-2.2,10.78c-.03.13,0,.21-.07.3s-.13.09-.25.08c.15-.36.06-.72.06-1.17l.13-13.78v-6.95c.9-.07.89-.58,1.25-.68,1-.27.6-1.37,1.37-1.84-.38-.36,2.19,1.79,2.01,1.55Z"/>
          <path class="cls-51" d="M227.06,53.65c.27.23-.72-.02-.85.3l8.22.03,3.96-.03s-.05.05.01.12c-1.39,1.06-2.7,2.19-4.04,3.36-.1.09-.21.15-.13.27l-14.95-2.4-7.2-1.21c-.16-.03-.19-.18-.18-.27.43-.13.86-.03,1.36-.03l10.29-.08,3.53-.06Z"/>
          <path class="cls-45" d="M270.5,50.52c-.02.15-.17.17-.3.23-1.16.51-2.24,1.11-3.38,1.71l.02,1.13,12.26.06c.1,0,.22.06.33.05.08-.01.17.07.15.18h-16.17c-.27-.19,1.92-.01,1.97-.1-.04-.19-.18-.54-.21-.2h-3.62s-3.97.01-3.97.01c.03-.32-.13-.34-.1,0h-5.07s-.04-.07-.07-.06c.06-.14.23-.21.42-.3l8.3-3.93c.22-.11.45-.11.43-.32l9.01,1.54Z"/>
          <path class="cls-3" d="M251.06,34.75c-.19.01-.17.29-.17.48l.02,5.06.06,3.61c.7-.02.24,1.06.31,1.33.09.35.46.54.71.75.32.26.44.91.93.95.29.02,1.45.04,1.55-.13.18.02.36.02.59-.04-.18-.08-.49-.13-.59.04-.2-.02-.4-.06-.6-.11.04-.8.66-.45,1.02-1.31l.91-2.19c.06-.15.34-.09.42-.17.08.39.28.83.3,1.24.04,1.01.29,1.96.5,3.08l3.09-3.08c.01.07,0,.13,0,.2-.67.6-1.3,1.27-1.95,1.97l-1.15,1.25-5.94,5.92c-.15,0-.25.31-.4.16-.04-.03-.07-.1-.09-.16v-11.34c0-.25.05-.67-.02-.87-.15-.36.05-.54.06-.83.12-2.14.06-4.24.02-6.34-.01-.45-.09-.88-.02-1.32.2-.03.19-.13-.01-.15l-.02-1.57.09-6.48s.17-.02.19.02l.08,7.85c0,.75.06,1.47.13,2.15Z"/>
          <path class="cls-57" d="M288.11,53.8l-8.53.1c.02-.12-.08-.2-.15-.18-.11.02-.23-.05-.33-.05l-12.26-.06-.02-1.13c1.14-.6,2.22-1.2,3.38-1.71.13-.06.28-.08.3-.23l17.43,2.99c.15.03.16.21.18.28Z"/>
          <path class="cls-54" d="M245.41,54l-5.22,4.67-5.96-.98c-.08-.12.03-.18.13-.27,1.34-1.17,2.66-2.3,4.04-3.36-.06-.07-.05-.11-.01-.12.1,0,.19.04.33.04h6.69Z"/>
          <path class="cls-49" d="M250.59,54.1c-.07-.03-.11.06-.22.09l-5.25,5.26c-.26.26-.51.48-.77.69-.02-.05-.1-.04-.1-.08,0-.16.05-.48-.07-.64-.92-.25-1.87-.26-2.75-.46l-1.25-.28,5.22-4.67,1.18-.08,3.89-.02c.13,0,.1.14.1.2Z"/>
          <path class="cls-41" d="M245,63.61c-.08-.05-.14,0-.23.06l-5.34,3.6-5.77,3.78c-.06-.25.16-.4.33-.57l1.94-1.96s.21-.03.28-.1l4.08-4.12c1.43-1.13,2.66-2.76,4.07-3.98.29,1.07.43,2.19.65,3.28Z"/>
          <path class="cls-14" d="M256.13,59.26s.08.11.12.13c.17.07,2.44-.37,2.88-.26l2.63,3.73c-.12,0-.22-.07-.39-.09l-.66.89,1.15,1.53c-.51-.51-1.12-.98-1.58-1.53s-.99-1.08-1.56-1.56-.97-1.19-1.65-1.69l-.54,2.84c.18.01.25-.03.31-.08.09-.08.15.14.22.12.43-.1.75-.28,1.08-.43l.39.68c-.1-.18.62,1.8.98,2.14l-3.01-2.14c-.09.26-.16.53-.2.77-.29-.45-.68-.84-1.05-1.25.11.02.08-.07.02-.13l-.77-.76c.12-.41.46-.6.7-.91-.15.2.43-.66.43-.6,0-.05-.2-.09-.21-.16-.06-.36-.31-.6-.67-.79.15-.25.39-.26.67-.31.11-.02.19-.18.27-.22.13-.06.3.06.43.07Z"/>
          <path class="cls-37" d="M267.21,37.19c.2.24-2.08,2.26-2.32,2.51,0-.11-.07-.1-.13-.02l-1.26,1.19-3.4,3.39-3.09,3.08c-.21-1.12-.46-2.07-.5-3.08l10.52-7.04c.06-.04.14-.04.18-.04Z"/>
          <path class="cls-39" d="M259.89,48.7c.53.1,1.07.19,1.6.28.02.21-.21.21-.43.32l-8.3,3.93c-.19.09-.36.16-.42.3-.4.16-.85.08-1.27.07l5.94-5.92c.06.13.05.27.12.48l2.76.53Z"/>
          <path class="cls-38" d="M244.25,60.05l-.29.29-1.76,1.69c-.13-.17-.29-.23-.28.01.04.14.1.23.1.27,0,0-1.31,1.27-1.18,1.12.41-.59-.85.56-.96.65-.72.6-1.38,1.78-2.27,2.16.02-.42.25-.79.4-1.19l.8-2.11,2.63-3.99c.88.2,1.83.21,2.75.46.12.16.06.48.07.64Z"/>
          <path class="cls-6" d="M254.45,62.37c.25.17.59.45.81.69.37.41.75.8,1.05,1.25l-.82,4.28c.18.24-2.4-1.91-2.01-1.55l-1.36-1.28c-.08-.11.64-1.4.73-1.51.22-.28.2-.65.38-.95,1.05-.17.82-.9,1.22-.93Z"/>
          <path class="cls-52" d="M263.01,43.98c-1.05,1.58-2.17,3.12-3.11,4.73l-2.76-.53c-.06-.21-.06-.35-.12-.48l1.15-1.25c.65-.7,1.28-1.37,1.95-1.97l.97-.86c.68-.07,1.37-.12,2.04-.05-.1.23-.21.31-.2.38,0,.03.02.08.08.06Z"/>
          <path class="cls-50" d="M244.45,48.08c-.89.43-2.05.43-3.11.61l-3.07-4.39,1.02-1.19,5.15,4.98Z"/>
          <path class="cls-46" d="M237.73,39.91c-.14.24-.23.52-.61.66l-2.1-2.04c-.38-.37-.67-.84-1.18-1.08l1.77,1.85c.53.56,1.08,1.04,1.57,1.56l2.12,2.24-1.02,1.19-5.28-7.33c-.08-.11,0-.26.07-.29.24-.14,4.24,2.94,4.66,3.24Z"/>
          <path class="cls-29" d="M244.85,44.96c-.17.89-.24,1.8-.5,2.66-.16.11-.27-.12-.39-.24l-1.25-1.33c.16-.18-.22-1.36-.36-1.71-.47.15-.84.31-1.19.16-.33-.35-.74-.69-1.08-1.02.24.01-.18-.87-.12-1.15.28-.12.57-.13.8-.27l4.11,2.9Z"/>
          <path class="cls-2" d="M263.01,43.98c-.06.02-.07-.03-.08-.06-.01-.06.09-.14.2-.38-.67-.06-1.37-.02-2.04.05l1.49-1.48,1.84-1.9.49-.52c.24-.25,2.52-2.28,2.32-2.51.16,0,.17.25.08.39l-1.3,1.92-2.99,4.49Z"/>
          <path class="cls-24" d="M240.84,63.44l-.66.77c1.05-1.22-4.8,4.86-4.25,4.31l-1.94,1.96c-.17.17-.38.32-.33.57-.07.04-.19-.05-.19-.11,0-.05-.02-.17.03-.25l5.31-7.75-.8,2.11c-.15.4-.38.77-.4,1.19.89-.38,1.54-1.56,2.27-2.16.11-.09,1.37-1.23.96-.65Z"/>
          <path class="cls-53" d="M261.36,65.15l1.17,1.17c-.16.1-.33.22-.53.3-.07.03-.03.24-.14.27-.08.02-.17.04-.28.07-.04.01.02.13,0,.18l-2.05-1.45c-.36-.35-1.08-2.32-.98-2.14-.01-.4,1.23.63,1.19.59.21.23.47.21.75.34.34.15.52.58.88.69Z"/>
          <path class="cls-21" d="M237.73,39.91l3.01,2.14c-.23.14-.51.14-.8.27-.06.28.36,1.17.12,1.15l-2.7-2.63c-.1-.02-.18-.07-.19.02-.48-.51-1.03-1-1.57-1.56l-1.77-1.85c.51.24.8.7,1.18,1.08l2.1,2.04c.38-.14.46-.42.61-.66Z"/>
          <path class="cls-44" d="M262.53,66.32c.62.62,1.38,1.14,1.97,1.72l2.04,2c.07.07.06.27,0,.25-.17-.1-.38-.2-.5-.04l-4.48-3.11s-.03-.16,0-.18c.11-.04.19-.05.28-.07.11-.03.07-.24.14-.27.2-.08.38-.2.53-.3Z"/>
          <path class="cls-16" d="M266.05,70.25c.11-.17.33-.06.5.04.05.03.06-.18,0-.25l-2.04-2-1.84-1.99c.19-.31.56-.49.71-.83l3.86,5.41c.08.11.04.19.02.23-.19.36-1.17-.59-1.2-.62Z"/>
          <path class="cls-15" d="M261.77,62.86l1.6,2.36c-.15.34-.52.52-.71.83l-.79-.85-1.15-1.53.66-.89c.17.02.27.1.39.09Z"/>
          <path class="cls-56" d="M263.41,53.9h-12.33c-.14-.01-.19.02-.2.11v4.73c.13,0,.17.07.19.13.02.12-.11.08-.18.1v3.2c0,.93-.05,1.81.04,2.72.07.01.19,0,.14.1-.27-.21-.19,1.5-.19,1.66-.08-.03-.07.07-.19.18l-.02-5.14s-.07-.04-.09-.02v-7.58c0-.06.04-.2-.1-.2l-3.89.02-1.18.08h-6.69c-.14-.01-.23-.06-.33-.06l-3.96.03-8.22-.03c.13-.32,1.12-.07.85-.3l11.66-.04h11.87c.02.06.06.12.09.16.16.15.25-.16.4-.16.42,0,.87.09,1.27-.07.03-.01.05.01.07.07h5.07c-.03-.36.14-.34.1-.01l3.97-.02h3.62c.03-.32.17.02.21.21-.05.09-2.24-.09-1.97.11Z"/>
          <path class="cls-30" d="M240.07,43.47c.34.33.75.67,1.08,1.02.52.55,1.07,1.02,1.56,1.55l1.25,1.33c.12.13.23.35.39.24.04.15.11.3.1.46l-5.15-4.98-2.12-2.24c.01-.08.09-.04.19-.02l2.7,2.63Z"/>
          <path class="cls-35" d="M250.88,66.65v2.9s-.02,6.95-.02,6.95c-.03,0-.29.02-.29-.14v-14.68s.08-.02.1.02l.02,5.14c.12-.12.1-.22.19-.18Z"/>
          <path class="cls-42" d="M244.36,60.14c.03.06-.02.13,0,.19-1.41,1.21-2.64,2.85-4.07,3.98-.05-.01-.1-.04-.1-.1l.66-.77c-.13.15,1.18-1.11,1.18-1.12,0-.05-.06-.14-.1-.27-.01-.24.15-.19.28-.01l1.76-1.69.29-.29s.08.04.1.08Z"/>
          <path class="cls-5" d="M256.13,59.26c-.13-.01-.3-.13-.43-.07-.08.04-.16.2-.27.22-.27.06-.52.06-.67.31.36.19.61.42.67.79.01.07.21.11.21.16,0-.06-.58.79-.43.6-.24.31-.58.5-.7.91l.77.76c.07.06.09.15-.02.13-.22-.25-.56-.52-.81-.69-.33-.63-.98-1.02-1.44-1.54l-1.17-1.31.69-1.82c.08-.21.3-.15.35-.23.2-.3.4-.62.53-.92.91.89,1.86,1.76,2.72,2.7Z"/>
          <path class="cls-31" d="M253.41,56.55c-.14.31-.33.62-.53.92-.05.08-.27.02-.35.23l-.69,1.82-.77-.65c-.02-.07-.06-.12-.19-.13v-4.73c.95.72,1.69,1.71,2.53,2.54Z"/>
          <path class="cls-33" d="M253.88,46.7c.19.05.4.09.6.11-.1.16-1.27.15-1.55.13-.49-.03-.62-.68-.93-.95-.25-.21-.62-.4-.71-.75-.07-.28.39-1.36-.31-1.33l-.06-3.61-.02-5.06c0-.19-.01-.47.17-.48l.7,6.52.34,3.12c.02.22-.12.53,0,.72.05.08.38-.06.4.13.27,1.75,1.29,1.44,1.37,1.46Z"/>
          <path class="cls-19" d="M251.07,64.99s.16-.02.18.02c.12.26.64.57.87.75l1.36,1.28c-.78.46-.37,1.56-1.37,1.84-.35.1-.35.61-1.24.68v-2.9c0-.16-.07-1.87.2-1.66Z"/>
          <path class="cls-1" d="M264.9,39.7l-.49.52-1.84,1.9-1.49,1.48-.97.86c0-.07,0-.13,0-.2l3.4-3.39,1.26-1.19c.06-.08.14-.09.13.02Z"/>
          <path class="cls-33" d="M254.47,46.81c.1-.18.42-.12.59-.04-.24.07-.42.06-.59.04Z"/>
          <path class="cls-23" d="M240.28,64.3l-4.08,4.12c-.07.07-.25.14-.28.1-.55.55,5.3-5.53,4.25-4.31,0,.05.05.09.1.1Z"/>
          <path class="cls-20" d="M258.73,62.1c-.06-.01-.12.03-.16.06-.35-.37-.74-.72-1.17-1.12l.75,1.82c-.34.14-.65.33-1.08.43-.07.02-.13-.2-.22-.12-.06.05-.13.09-.31.08l.54-2.84c.68.51,1.09,1.21,1.65,1.69Z"/>
          <path class="cls-7" d="M258.57,62.17c.59.62,1.12,1.34,1.83,1.83.34.34.62.82.95,1.15-.36-.1-.53-.53-.88-.69-.28-.12-.53-.11-.75-.34.04.04-1.2-.99-1.19-.59l-.39-.68-.75-1.82c.43.4.81.75,1.17,1.12Z"/>
          <path class="cls-27" d="M261.87,65.19l.79.85,1.84,1.99c-.59-.58-1.35-1.09-1.97-1.72l-1.17-1.17c-.34-.34-.62-.81-.95-1.15-.07-.07-.11-.23-.12-.33.46.55,1.08,1.02,1.58,1.53Z"/>
          <path class="cls-22" d="M258.73,62.1c.56.49,1.07.99,1.56,1.56,0,.1.05.26.12.33-.71-.49-1.24-1.21-1.83-1.83.04-.04.1-.08.16-.06Z"/>
          <path class="cls-47" d="M254.45,62.37c-.4.03-.17.76-1.22.93-.19.3-.16.66-.38.95-.09.11-.81,1.4-.73,1.51-.23-.18-.76-.49-.87-.75.08-.16.16-.3.32-.51-.4-.1-.21-1.48-.22-1.83l.69-.66c.03-.55.85-.96.97-1.17.46.52,1.12.91,1.44,1.54Z"/>
          <path class="cls-34" d="M242.71,46.04c-.49-.52-1.04-.99-1.56-1.55.36.15.72-.01,1.19-.16.14.35.53,1.53.36,1.71Z"/>
          <path class="cls-48" d="M251.84,59.52l1.17,1.31c-.12.21-.94.62-.97,1.17l-.69.66c.01.35-.17,1.73.22,1.83-.16.21-.24.35-.32.51-.02-.04-.14-.04-.18-.02.05-.1-.08-.09-.14-.1-.08-.91-.04-1.78-.04-2.72v-3.2c.07-.03.2.02.18-.1l.77.65Z"/>
        </g>
      </g>
    </g>
  </g>
</svg>