<?xml version="1.0" encoding="UTF-8"?>
<svg xmlns="http://www.w3.org/2000/svg" xmlns:xlink="http://www.w3.org/1999/xlink" viewBox="0 0 500 500">
  <defs>
    <style>
      .cls-1 {
        fill: url(#linear-gradient-4);
      }

      .cls-1, .cls-2 {
        opacity: .4;
      }

      .cls-1, .cls-2, .cls-3, .cls-4 {
        mix-blend-mode: screen;
      }

      .cls-5 {
        fill: url(#linear-gradient-3);
        opacity: .3;
      }

      .cls-6 {
        fill: url(#linear-gradient-2);
      }

      .cls-2 {
        fill: url(#linear-gradient-7);
      }

      .cls-7 {
        fill: url(#linear-gradient-9);
      }

      .cls-7, .cls-8 {
        opacity: .5;
      }

      .cls-9 {
        isolation: isolate;
      }

      .cls-8 {
        fill: url(#linear-gradient-8);
      }

      .cls-3 {
        fill: url(#linear-gradient-5);
        opacity: .6;
      }

      .cls-4 {
        fill: url(#linear-gradient-6);
        opacity: .2;
      }

      .cls-10 {
        fill: url(#linear-gradient);
      }
    </style>
    <linearGradient id="linear-gradient" x1="226.78" y1="450.73" x2="273.21" y2="450.73" gradientUnits="userSpaceOnUse">
      <stop offset="0" stop-color="#7f8014"/>
      <stop offset=".3" stop-color="#5e5009"/>
      <stop offset=".7" stop-color="#3c3c17"/>
      <stop offset="1" stop-color="#003548"/>
    </linearGradient>
    <linearGradient id="linear-gradient-2" x1="244.78" y1="472.12" x2="278.48" y2="56.36" gradientUnits="userSpaceOnUse">
      <stop offset=".01" stop-color="#0a6c60"/>
      <stop offset="1" stop-color="#00872d"/>
    </linearGradient>
    <linearGradient id="linear-gradient-3" x1="132.58" y1="255.28" x2="442.35" y2="403.75" gradientUnits="userSpaceOnUse">
      <stop offset="0" stop-color="#00562e"/>
      <stop offset=".71" stop-color="#2c4984"/>
      <stop offset="1" stop-color="#005075"/>
    </linearGradient>
    <linearGradient id="linear-gradient-4" x1="184.84" y1="224.49" x2="249.41" y2="195.37" gradientUnits="userSpaceOnUse">
      <stop offset="0" stop-color="#eef65d"/>
      <stop offset=".99" stop-color="#004e40"/>
    </linearGradient>
    <linearGradient id="linear-gradient-5" x1="192.23" y1="149.82" x2="257.79" y2="103.74" xlink:href="#linear-gradient-4"/>
    <linearGradient id="linear-gradient-6" x1="154.58" y1="357.4" x2="258.1" y2="281.84" xlink:href="#linear-gradient-4"/>
    <linearGradient id="linear-gradient-7" x1="130.01" y1="249.82" x2="212.42" y2="249.82" xlink:href="#linear-gradient-4"/>
    <linearGradient id="linear-gradient-8" x1="175.73" y1="210.77" x2="149.15" y2="253.06" xlink:href="#linear-gradient-3"/>
    <linearGradient id="linear-gradient-9" x1="112.42" y1="305.62" x2="247.01" y2="465.14" xlink:href="#linear-gradient-3"/>
  </defs>
  <g class="cls-9">
    <g id="Layer_1" data-name="Layer 1" transform="translate(0,-0.7)">
      <g>
        <path class="cls-10" d="M232.59,408.68s-1.94,60.43-5.81,81.6c0,0,13.55,11.93,46.43,3.1,0,0-6.45-54.69-3.22-81.62,0,0-12.9-13.24-37.4-3.07Z"/>
        <g>
          <path class="cls-6" d="M432.37,420.39c-1.52.95-3.1,1.76-4.68,2.51-10.65-.48-20.63-7.76-28.94-14.19-4.8-3.67-9.52-7.44-13.55-11.85,9.67,6.2,21.04,9.45,32.36,9.25.39,0,.44-.59.08-.71-8.37-2.51-16.1-5.34-23.2-9.32,9.83-.34,20.32-1.68,27.85-7.89.36-.29.28-1-.25-1-.49.03-.99.11-1.48.14h-.02c-14.11,2.14-29.09-3.02-42.37-11,4.77-2.53,9.37-5.43,13.56-8.24,5.45-3.66,14.87-12.01,13.43-19.82-.22-1.11-1.58-.83-1.86.02-.63,1.81-1.73,3.55-3.12,5.22-6.82,3.81-15.1,3.68-22.79,3.44,7.17-1.8,13.9-5.24,19.52-11.12,1.1-.67,2.18-1.45,3.24-2.33.37-.32.29-1.04-.12-1.22.09-.09.18-.17.25-.27.3-.42.1-1.34-.42-1.25-2.34.42-4.61.86-6.9,1.37-10.8-.6-21.36-3.87-30.54-11.15-2.37-1.9-5.03-4.04-7.73-6.39,9.81,2.64,20.01,2.93,28.07,1.43.65-.11.92-1.38.15-1.57-4.71-1.13-9.38-2.27-14.05-3.58,7.58-.77,14.47-4.03,19-11.53.34-.6-.26-1.22-.7-1.12-5.36,1.24-11.03,1.61-16.79,1.32-13.27-5.16-28.42-18.03-36.15-27.48-1.34-1.62-2.56-3.35-3.77-5.08,10.94-1.25,23.67-4.96,29.8-15.05,1.14-1.8.13-5.05-2.01-4.17-1.16.5-2.35.93-3.55,1.35-1.11.15-2.17.25-3.25.3-8.63-.56-18.01-3.74-26.21-8.54,3.63-.11,7.19-1.15,10.46-3.24,1.58-.42,3.13-1.19,4.58-2.48.39-.3.28-1.18-.24-1.13.13-.13.26-.21.39-.34.33-.39.06-1.18-.4-1.13-4.01.42-7.68.13-11.11-.66-3.86-2.03-7.44-5.11-10.79-8.48,9.07,1.45,18.3,1.31,25.22-2.43.4.06.86.17,1.27.21,1.11.15,1.65-1.01,1.61-2.15.54-.43,1.09-.83,1.58-1.31.56-.56.36-1.58-.39-1.66-1.84-.17-3.9-.31-6.08-.45-11.11-4.57-21.03-12.63-30.7-20.66-7.35-6.06-12.22-12.99-16.37-20.74,11.83,2.71,24.64,1.61,32.85-1.64.53-.21.59-.86.36-1.31-.03-.04-.03-.06-.06-.11-.09-.11-.18-.18-.32-.25h-.03c-.06-.02-.09-.07-.17-.07-.09,0-.18-.06-.28-.06-8.76-1.74-17.12-11.05-24.02-17.38-2.06-1.86-3.94-3.84-5.77-5.87,12.58,9.24,27.64,15.83,36.68,7.16.36-.37.41-1.25-.17-1.39-44.44-10.13-67.01-58.48-80.81-107.42-.63-2.23-3.58-2.56-3.97.07-.15,1.12-.23,2.22-.35,3.32-1.34-.56-3.13.29-3.56,2.16-5.52,23.61-11.37,63.21-35.24,69.61-.52.14-.29,1.05.22.93,3.86-.71,7.83-2.72,11.64-5.64-9.85,12.65-23.88,27.67-38.27,28.41-1.19.07-1.17,2.29.02,2.33,10.34.21,19.68-2.07,28.39-6.83-7.01,9.81-15.62,18.13-25.36,23.13-1.6.83-.97,3.78.77,3.24,10.4-3.25,20.36-9.02,28.63-17.58-.85,1.6-1.68,3.14-2.6,4.65-.88,1.26-1.72,2.51-2.6,3.81-9.37,13.13-22.42,21.49-36.66,22.99-1.58.17-1.46,2.77.05,2.98,5.04.72,9.97.54,14.76-.42-8.46,6.72-18.45,11.71-27.38,9.53-1.12-.28-1.52,1.7-.44,2.11,9.29,3.64,17.74,2.87,26.02-.45-8.59,7.24-18.23,12.91-27.56,12.58-1.2-.02-1.32,2.2-.12,2.33,6.51.69,12.68.36,18.66-1-10.35,7.39-22.09,11.71-35.62,11.14-.98-.05-1.52,1.12-1.46,2.18-1.6-.21-2.53,2.51-.99,3.52,9.94,6.63,20.6,9.37,31.38,9.33-7.4,4.56-15.56,7.17-23.93,7.32-1.59.04-1.69,2.64-.2,2.99,4.98,1.15,9.92,1.39,14.76.86-8.95,5.97-19.29,10.09-28.01,7.13-1.11-.35-1.66,1.57-.62,2.09,2.38,1.16,4.73,1.95,7.09,2.53-2.17.52-4.35.97-6.58,1.3-.82.12-1.27.8-1.38,1.54-1.54.03-3.09.05-4.59.06-2.26,0-2.63,4.13-.48,4.82,7.3,2.34,14.9,3.7,22.61,4.17-11.08,6.77-23.36,10.26-37.11,8.49-.98-.13-1.58.99-1.62,2.04-1.56-.33-2.7,2.3-1.24,3.44,12.41,9.83,26.62,13.08,41.04,11.96-1.5,1.2-3.01,2.32-4.51,3.41-14.03,9.95-29.12,16.63-45.16,17.53-.83.04-1.35.68-1.54,1.41-1.52-.11-3.04-.22-4.56-.33-2.26-.2-2.94,3.89-.82,4.76,7.54,3.14,15.56,5.26,23.71,6.32-1.33.41-2.68.77-4.01.94-1.15.19-1.73,1.17-1.8,2.2-2.14-.87-4.2-1.9-6.1-3.3-1.11-.8-2.46.87-1.72,2.2,3.86,7.12,11.38,10.21,19.35,11.46-5.39,1.92-10.86,3.71-16,6.73-.93.55-.45,2.36.53,2.05,8.05-2.6,16.21-4.02,24.05-7.26-3.63,4.23-7.43,8.34-11.47,12.32-11.85,11.72-29.39,28.33-44.63,29.16-1.14.07-1.8,1.01-1.97,2.04-2.03-1.06-3.99-2.27-5.82-3.84-1-.87-2.5.68-1.88,2.07,6.29,14.12,26.99,14.97,38.62,15.07,5.92.05,13.76-.91,21.56-3.05-5.94,4.49-12.87,7.29-19.3,10.05-1.17.5-.89,2.8.36,2.4,2.64-.85,5.27-1.65,7.88-2.49-11.49,7.88-24.57,11.94-37.53,12.63-.18,0-.34.06-.48.13-1.06-.47-2.14-.85-3.15-1.36-1.1-.54-1.81,1.43-.92,2.24,23.45,21.92,59.11,19.26,86.14.97-3.84,4.24-7.96,7.99-12.99,9.37-.64.16-.86,1.01-.74,1.67-4.48,1.14-9.06,2.31-13.64,3.9-1.93.65-2,4.71.21,4.58,16.33-1.04,33-1.17,48.36-9.44,5.87-3.2,11.5-7.31,16.8-12.07-3.66,5.8-7.65,11.37-11.89,16.32-.35.41.13,1.09.47.7,8.38-8.85,17.92-18.12,23.82-29.9-.49,3.6-1.04,7.24-1.7,10.74-1.78,9.67-2.78,21.26-6.57,30.61-1.78,3.17-3.56,6.37-5.7,9.25-.26.36-.08,1.07.37.89,5.33-1.98,8.57-5.36,12.62-10.2,6.63-8.05,14.62-14,21.07-22.38,1.27-1.6,2.53-3.38,3.78-5.26-1.52,4.96-3.4,9.61-5.82,13.58-.32.55.38,1.1.72.56,4.62-6.87,7.58-13.74,9.9-21.76,7.17,15.85,17.19,27.46,27.43,40.72.39.49.97-.18.67-.73-.8-1.3-1.48-2.69-2.26-4.05,1.6,2.21,3.2,4.36,4.81,6.56.41.58,1.08-.06.89-.75-3.1-9.98-5.57-19.79-7.35-29.78,24.41,13.4,57.21,26.62,80.16,8.87,1.11-.86,1.09-3.54-.52-3.41-2.22.14-4.56.23-6.97.25-6.34-.69-12.14-2.63-17.68-5.72,7.88,1.35,15.78,1.44,23.18-.37,7.37,4.16,15.57,6.94,23.53,9.1,9.27,2.51,18.38,3.46,27.91,3.36,7.47-.07,15.83.47,22.6-3.21,1.54-.17,3.07-.36,4.61-.59.47-.07.67-.85.11-.94-12.76-1.81-25.22-1.67-37.2-6.72,18.11,1.16,40.15.33,51.1-13.27.72-.88-.22-2.25-1.2-1.61Z"/>
          <path class="cls-5" d="M432.37,420.39c-1.52.95-3.1,1.76-4.68,2.51-10.65-.48-20.63-7.76-28.94-14.19-4.8-3.67-9.52-7.44-13.55-11.85,9.67,6.2,21.04,9.45,32.36,9.25.39,0,.44-.59.08-.71-8.37-2.51-16.1-5.34-23.2-9.32,9.83-.34,20.32-1.68,27.85-7.89.25-.19.28-.56.12-.78-.07-.12-.18-.21-.36-.21-.49.03-.99.11-1.5.13-7.93,1.2-16.08.05-24.08-2.54-6.29-2.02-12.46-4.95-18.3-8.46,1.8-.93,3.5-1.97,5.26-3.02,2.87-1.71,5.68-3.48,8.3-5.23,2.44-1.63,5.65-4.23,8.37-7.26,1.84-2.1,3.44-4.42,4.36-6.81.74-1.9,1.04-3.84.7-5.75-.22-1.11-1.58-.83-1.86.02-.63,1.81-1.73,3.55-3.12,5.22-6.82,3.81-15.1,3.68-22.79,3.44,5.07-1.27,9.85-3.44,14.23-6.63.13-.11.28-.2.4-.29.32-.25.7-.47,1.03-.74-.08.02-.13.05-.2.06.63-.5,1.29-.99,1.9-1.56.72-.65,1.47-1.23,2.15-1.95,1.1-.67,2.18-1.45,3.24-2.33.37-.32.29-1.04-.12-1.22.09-.09.18-.17.25-.27.3-.42.1-1.34-.42-1.25-2.34.42-4.61.86-6.9,1.37-7.74-.42-15.33-2.26-22.4-5.93-2.81-1.46-5.52-3.17-8.14-5.22-2.37-1.9-5.03-4.04-7.73-6.39,9.81,2.64,20.01,2.93,28.07,1.43.65-.11.92-1.38.15-1.57-4.71-1.13-9.38-2.27-14.05-3.58,5.75-.59,11.11-2.6,15.33-6.85,1.34-1.33,2.56-2.89,3.67-4.68.34-.6-.26-1.22-.7-1.12-5.36,1.24-11.03,1.61-16.79,1.32-2.57-1.01-5.23-2.37-7.88-3.86-11.01-6.23-22.06-16-28.27-23.61-1.34-1.62-2.56-3.35-3.77-5.08,10.42-1.19,22.38-4.67,28.83-13.7.31-.47.7-.86.97-1.35,1.14-1.8.13-5.05-2.01-4.17-1.16.5-2.35.93-3.55,1.35-1.11.15-2.17.25-3.25.3-8.63-.56-18.01-3.74-26.21-8.54.82-.03,1.62-.11,2.42-.22,2.22-.33,4.38-1.06,6.44-2.16.54-.26,1.08-.54,1.6-.86,1.58-.42,3.13-1.19,4.58-2.48.39-.3.28-1.18-.24-1.13.13-.13.26-.21.39-.34.33-.39.06-1.18-.4-1.13-4.01.42-7.68.13-11.11-.66-3.86-2.03-7.44-5.11-10.79-8.48.41.06.82.1,1.26.17,8.66,1.26,17.35.98,23.96-2.6.4.06.86.17,1.27.21.62.09,1.03-.26,1.29-.75.21-.38.34-.89.32-1.4.54-.43,1.09-.83,1.58-1.31.56-.56.36-1.58-.39-1.66-1.84-.17-3.9-.31-6.08-.45-6.14-2.51-11.91-6.13-17.48-10.2-4.53-3.28-8.91-6.87-13.22-10.47-7.35-6.06-12.22-12.99-16.37-20.74,10.23,2.36,21.19,1.83,29.27-.45,1.27-.36,2.49-.75,3.59-1.19.53-.21.59-.86.3-1.42-.09-.11-.18-.18-.35-.25-.06-.02-.09-.07-.17-.07-.09,0-.18-.06-.28-.06-8.76-1.74-17.12-11.05-24.02-17.38-2.06-1.86-3.94-3.84-5.77-5.87,12.58,9.24,27.64,15.83,36.68,7.16.36-.37.41-1.25-.17-1.39-1.09-.24-2.09-.62-3.13-.9-.12.06-.21.15-.33.22-1.2-.05-2.38-.16-3.55-.4-7.47-1.5-15.18-5.22-21.92-9.26-14.33-8.57-22.71-22.9-32.73-37.41-.55-.81-1.75.09-1.46,1.07,2.93,8.63,7.2,16.48,12.27,23.46,2.42,5.96,5.23,11.27,8.61,15.8-.83-.61-1.65-1.23-2.45-1.89-4.7-3.93-9.17-9.18-14.27-12.15-.97-.55-1.8.85-1.09,1.81,1.83,2.6,3.74,5.04,5.74,7.4,7.81,9.99,16.02,18.57,25.65,24.72-2.35-.23-4.74-.58-7.25-1.16-13.63-3.21-25.09-9.63-34.37-22.55-.59-.77-1.68.3-1.19,1.16,2.4,4.1,4.83,8.07,7.54,11.75,10.49,20.1,23.96,37.71,39.77,49.19-12.61-7.43-23.69-16.6-34.33-28.31-.93-1-2.03.52-1.31,1.66,3.36,5.04,6.36,9.73,9.78,14.01,9.84,15.44,21.96,30.85,36.06,39.43-10.16-2.39-22.95-11.3-30.44-19.92-.59-.68-1.63.28-1.11,1.11,2.07,3.31,4.38,6.33,6.86,9.03,2.63,3.89,4.98,7.72,8.57,11.11,4.73,4.47,10.01,8.06,15.43,11.07-18.63-4.82-37.58-19.83-50.45-37.08-1.08-1.42-2.56.47-2.01,1.97,1.45,3.93,3.74,7.58,6.35,10.94,2.39,4.8,4.58,9.63,6.91,14.35-.19.1-.36.37-.22.66,1.5,2.93,3.04,5.84,4.67,8.64-4.53-5.02-8.81-10.36-13.06-15.67-1.04-2.24-2.01-4.49-2.79-6.82-.17-.59-1.06-.56-.95.18,1.12,9.91,4.69,20.5,10.12,28.03.88,1.24,2.57-.13,2.2-1.65-.89-3.48-2.26-6.76-3.78-9.96,4.26,6.59,8.61,12.77,14.16,18.48,2.5,2.57,5.28,4.88,8.17,6.99,3.87,4.72,7.86,9.29,12.06,13.83,7.32,7.99,16.5,12.9,25.48,17.44,8.69,4.38,18.09,7.87,27.64,9.65-15.62,1.6-32.75,1.84-46.12-8.13-.71-.55-1.77.61-1.19,1.51,1.92,3.06,4.12,5.26,6.52,7.02,10.15,11.2,23.05,19.89,35.75,24.99,3.69,1.47,7.59,2.96,11.57,4.31-18.97-2.73-39.3-3.22-54.83-16.77-1.15-1.24-2.21-2.51-3.13-3.83-.53-1.08-1.04-2.12-1.47-3.22-.18-.4-.52-.62-.89-.78-.75-1.54-1.29-3.11-1.61-4.69-.18-1.01-1.6-.71-1.6.25.03,4.86,1.16,9.22,3.1,13.12,6.02,18.13,26.66,30.88,41.93,37.71,4.61,2.06,9.39,3.45,14.29,4.38-14.12,1.14-28.2-.02-41.7-4.08-3.86-1.37-7.62-2.92-11.3-4.67,2.7,6.88,6.52,13.35,10.43,19.55,4.96,7.88,9.03,18.72,16.71,23.92,3.04,2.05-16.04-4.11-19.4-6.18-9.1-5.57-18.18-11.69-25.28-20.01-6-7.05-10.81-14.84-14.84-23.16-.05.42-.11.85-.15,1.27.54,4.01,1.16,8.11,2.16,11.99-.95-.95-1.87-1.9-2.79-2.85-3.13,18.79,1.11,33.61,6.4,36.82,1.34.82-9.69-3.57-12.01-5.7-8.09-7.48-13.47-18.66-17.35-29.13-.88-2.37-1.69-4.77-2.46-7.18-.4-1.28-2.49-5.87-2.04-7.05-.26.67-.51,1.33-.75,2.01-1.21,3.64-.93,8.43-1.1,12.22-.02.4-.02.85-.05,1.27-3.92,14.91,1.62,33.21,8.86,45.6,2.71,4.62,6.59,9.38,11.14,13.66-1.48-.66-2.95-1.34-4.44-1.94-.33-.15-.64-.29-.98-.42-.98-.89-1.98-1.78-2.91-2.75-9.56-9.93-16.62-23.25-20.75-36.96-.93-7.27-1.85-14.57-3.04-21.81-.05-.09-.08-.13-.12-.2-.14-1.02-.26-2.04-.52-2.99-.11-.51-.82-.49-.93,0-4.79,21.76-9.84,42.51-19.46,62.57-1.36,2.85-2.83,5.64-4.32,8.41.18-.86.43-1.74.63-2.59,1.96-8.6,2.55-17.67,3.24-26.46.67-8.67,1.72-17.26-1.61-25.4-.09-.24-.29-.36-.52-.43.05-1.09.11-2.15.05-3.28-.03-.59-.87-.73-1.01-.12-5.2,22.45-26.2,40.26-42.54,53.94-1.31,1.08-2.65,2.11-3.99,3.12,12.83-15.21,24.39-37.27,23.87-56.95,0-.24-.17-.39-.36-.44-.08-.43-.67-.56-.87-.15-5.88,12.25-16.06,20.02-26.76,27.19-10.31,6.91-20.35,13.9-31.13,19.93-7.24,4.05-16.32,7.5-25.86,9.52,11.75-6.02,22.58-15.33,31.62-25.15,6.36-6.9,14.21-16.03,17.22-25.69,1.63-2.36,2.89-5.05,3.5-8.27.11-.49-.46-.87-.82-.49-12.73,14.4-31.18,19.37-48.82,24-9.74,2.56-20.36,2.64-30.21.73-.05,0-.08-.03-.12-.03-.7.09-1.37.2-2.04.23-1.14.07-1.8,1.01-1.97,2.04-2.03-1.06-3.99-2.27-5.82-3.84-1-.87-2.5.68-1.88,2.07.63,1.39,1.42,2.63,2.3,3.79,8.05,10.45,25.82,11.2,36.31,11.27,5.92.05,13.76-.91,21.56-3.05-5.94,4.49-12.87,7.29-19.3,10.05-1.17.5-.89,2.8.36,2.4,2.14-.68,4.26-1.34,6.36-2-1.27.86-2.55,1.77-3.82,2.6-.84.55-1.73,1.08-2.6,1.62-7.73,4.52-17.22,8.14-26.69,9.15-2.66-.33-5.24-.87-7.76-1.57-.09.48-.06,1.02.33,1.35,3.13,2.93,6.47,5.38,10,7.45,21.39,12.6,48.97,9.78,71.63-3.65-2.34,2.18-4.85,4.21-7.48,6.14-.33.12-.63.3-1,.4-.34.09-.57.41-.67.78-.7.47-1.34.96-2.03,1.43-2.63,1.73-5.27,3.4-8,4.92-1.68.59-3.36,1.08-5.05,1.59.17.82.69,1.5,1.59,1.45,5.38-.35,10.8-.61,16.19-1.08,10.98-.95,21.87-2.82,32.17-8.37,5.87-3.2,11.5-7.31,16.8-12.07-3.66,5.8-7.65,11.37-11.89,16.32-.35.41.13,1.09.47.7,8.38-8.85,17.92-18.12,23.82-29.9-.1.78-.26,1.55-.36,2.34-.42,2.82-.83,5.64-1.34,8.4-1.78,9.67-2.78,21.26-6.57,30.61-1.78,3.17-3.56,6.37-5.7,9.25-.26.36-.08,1.07.37.89,1.24-.44,2.34-1.01,3.39-1.63,3.46-2.03,6.13-4.85,9.23-8.57,6.63-8.05,14.62-14,21.07-22.38,1.27-1.6,2.53-3.38,3.78-5.26-1.52,4.96-3.4,9.61-5.82,13.58-.32.55.38,1.1.72.56,4.62-6.87,7.58-13.74,9.9-21.76,1.28,2.83,2.69,5.5,4.16,8.09,3.81,6.86,8.12,13.02,12.73,19.08,3.41,4.48,6.98,8.91,10.54,13.55.39.49.97-.18.67-.73-.8-1.3-1.48-2.69-2.26-4.05,1.6,2.21,3.2,4.36,4.81,6.56.41.58,1.08-.06.89-.75-3.1-9.98-5.57-19.79-7.35-29.78,3.55,1.95,7.29,3.89,11.13,5.73,6.1,4.51,22.3,9.48,21.32,8.34,14.13,4.11,28.48,5.06,40.84-1,2.36-1.16,4.66-2.5,6.86-4.21,1.11-.86,1.09-3.54-.52-3.41-2.22.14-4.56.23-6.97.25-1.73-.19-3.41-.49-5.07-.86-4.41-1.01-8.59-2.64-12.61-4.86,3.87.67,7.74,1.02,11.53,1,6.24,1.08,12.41,1.77,18.61,2.05.16.07.29.12.42.18,3.24,1.39,6.54,2.6,9.87,3.65-.26.6-.74,1.12-1.5,1.35-.31.11-.64.16-.98.25,3.3.17,6.6.32,9.89.52,3.2.82,6.36,1.42,9.52,1.89,5.7.83,11.38,1.26,17.25,1.2,4.1-.06,8.46.08,12.7-.38,3.48-.4,6.86-1.16,9.9-2.83,1.54-.17,3.07-.36,4.61-.59.47-.07.67-.85.11-.94-12.76-1.81-25.22-1.67-37.2-6.72.08,0,.17,0,.26,0,10.95.69,23.28.63,33.74-2.53,4.62-1.42,8.91-3.41,12.55-6.25,1.68-1.31,3.18-2.8,4.55-4.49.72-.88-.22-2.25-1.2-1.61Z"/>
          <path class="cls-1" d="M160.58,204.69c13.41,5.26,25.05,1.47,37-6.27-5.61,7.17-11.74,13.55-18.48,18.61-3.3,2.49-6.74,4.66-10.35,6.46,2.06-.33,4.03-.7,5.88-1.08,5.91-1.19,11.84-3.03,17.42-5.81,5.49-2.72,16.93-11.78,21.75-16.16-3.42,12.03-15.14,28.55-14.07,27.74,12.52-9.51,16.62-15.52,23.22-26.78.21,16.03-2.03,32.15-.63,48.22.13,1.57-.88,5,.11,3.86,4.25-4.92,21.28-45.92,23.77-50.53,3.24,11.68,13.63,33.09,13.92,32.12,2.61-9.1,1.2-19.1.65-28.68,7.06,7.32,26.55,16.55,25.1,14.92-12.81-14.7-25.1-34.31-26.92-56.57-.14-1.81-4.61,20.12-5.83,30.92-6.27-10.84-8.17-39.55-8.9-38.11-6.65,13.36-10.26,28.47-16.08,42.32-1.8-10.88,2.53-36.73,1.45-35.63-3.61,3.72-6.64,8.04-9.88,12.26-2.78,3.62-6.05,6.49-9.44,9.18,4.05-7.09,10.54-24.05,9.98-23.15-5.34,8.83-14.05,14.78-23.3,18.57-2.11,1.56-4.27,2.93-6.51,4.13-5.3,2.8-10.97,4.66-16.84,5.27-1.58.17-1.46,2.77.05,2.98,5.04.72,9.97.54,14.76-.42-8.46,6.72-18.45,11.71-27.38,9.53-1.12-.28-1.52,1.7-.44,2.11Z"/>
          <path class="cls-3" d="M183.03,157.08c.32,0,.63-.04.96-.04.48-.17.97-.32,1.42-.54.21.1.49.15.78.11,14.36-1.6,27.46-12.22,39.84-21.3-2.3,3.63-5.46,6.67-8.06,9.57-1.06,1.17-.2,3.89,1.28,3.64,9.14-1.57,17.76-8.85,24.42-17.11-.74,4.28-1.88,8.46-2.22,12.86-.13,1.83,2,2.73,2.91,1.43,4.02-5.72,6.11-12.65,8.97-19.22,2.7,7.12,4.58,14.46,8.57,20.79.86,1.32,2.52.88,2.58-.93.23-5.46-.2-10.85-.46-16.3,5.34,3.17,10.13,7.94,14.12,13.27,1.16,1.58,3.02-.81,1.86-2.37-8.33-11.08-12.01-25.62-18.1-38.51-.51-1.12-2.11-.93-2.32.43-.51,3.55-.95,6.99-1.88,10.34-2.64-5.47-3.38-11.12-3.46-17.74-.05-1.5-1.55-2.27-2.39-1.18-3.3,4.36-5.76,9.53-8.85,14.08,1.31-10.59,3.92-20.86,5.03-31.49.77-7.37,1.23-14.88,1.24-22.34-.32.29-.59.77-.7,1.44-.15,1.12-.23,2.22-.35,3.32-.57-.24-1.19-.17-1.78.06-.82.31-1.55,1.01-1.78,2.1-5.52,23.61-11.37,63.21-35.24,69.61-.52.14-.29,1.05.22.93,3.86-.71,7.83-2.72,11.64-5.64-5.31,6.83-11.86,14.34-19.02,19.93-6.03,4.72-12.52,8.08-19.04,8.48-.06,0-.14,0-.21,0-.29.02-.52.2-.68.43-.41.66-.18,1.88.7,1.9Z"/>
          <path class="cls-4" d="M331.61,297.59c-5.76-1.84-11.3-3.29-16.62-5.15-5.47-5.83-11.67-10.24-17.16-16.04-5.73-6.06-9.1-14.82-14.88-20.44-1.04-1.03-2.7-.4-2.68,1.43.02,3.72.06,3.73.59,7.37.47,3.36,2.35,13.77-2.58,5.49-2.22-3.74-3.53-8.03-6.36-11.22-.66-.74-1.54-.48-2.04.38-2.99,5.31-1.34,11.27-.77,17.2-3.35-6.57-4.73-14.31-8.38-20.77-.55-.99-1.7-1.05-2.21.02-3.63,7.55-3.21,16.33-2.98,24.89-2.21-7.78-3.53-15.86-5.56-23.81-.33-1.27-1.7-1.48-2.26-.32-4.59,10.07-6.19,21.49-9.52,32.16-.55-11.68.48-23.24,1.06-34.98.06-1.33-1.54-2.17-2.2-1.07-9.95,15.82-18.09,33.06-24.83,51.23,1.03-15.15,3.26-30.11,6.45-44.8.34-1.52-1.26-2.6-2.11-1.49-7.03,9.13-13.45,18.49-21.67,26.06-6.37,5.86-12.94,11.38-19.49,16.97,3.74-5.41,7.74-10.4,10.86-16.63,4.97-9.9,11.49-19.11,15.42-29.72.33-.89-.45-2.19-1.22-1.46-14.28,13.6-26.31,28.16-57.71,45.18,3.99-.52,8.42-2.95,12.3-4.36,2.83-1.03,10.09-2.47,11.96-5-3.32,4.53-6.78,8.94-10.49,13.28-9.06,10.51-21.78,24.71-34.48,30.46-2.61,1.19-5.19,2.03-7.77,2.4-.17.03-.32.1-.46.17,16.66,5.57,36.49-.55,51.2-9.13,6.82-3.98,13.33-8.87,19.26-14.63,2.24-2.18,4.39-4.53,6.51-6.92,1.31-1.42,2.53-2.95,3.67-4.62l.82,3.81c-.61,2.49-1.42,4.92-2.38,7.22-3.02,7.94-6.4,15.58-10.75,22.53-5.08,8.16-11.61,14.71-16.89,22.67-1.06,1.57,28.06-13.95,41.1-22.05,10.09-6.24,18.89-16.02,24.79-27.97-1.88,10.73-6.46,20.73-8.2,31.59-.27,1.61,1.35,2.97,2.34,1.61,5.18-7.01,8.43-15.4,12.04-23.69,3.46-7.91,6.53-17.84,11.52-24.61,3.3,11.42,3.92,25.05,11.5,33.55.75.87,2.12.51,2.38-.85,1.31-7.46-1.88-20.43,1.6-27.37,2.71,7.84,6.31,16.17,13.16,18.79.7.26,1.66-.36,1.77-1.3.82-7.16-1.95-13.17-3.62-19.72,2.58,3.39,5.3,6.55,8.52,9.12.93.7,1.68-.51,1.57-1.52-.48-3.92-1.57-7.28-2.81-10.89-2.45-7.13-1.46-5.25,2.46-1.22,5.04,5.2,9.61,9.36,16.28,10.35.43.06,1-.5.64-1.1-2.78-4.54-5.51-8.87-7.55-13.85,10.74,9.5,23.31,15.72,36.71,14.35.7-.07.89-1.37.15-1.6Z"/>
          <path class="cls-2" d="M211.47,227.69c-1.24,1.16-2.49,2.29-3.74,3.44-3.32,2.67-6.78,4.96-10.26,7.17,4.09-2.95,8.11-5.93,11.88-9.79.13-.14-.03-.4-.17-.28-5.65,4.93-11.87,8.18-18.07,11.85-6.55,3.84-11.91,9.63-18.05,14.35-6.55,5.05-13.79,8.38-21.21,10.88-3.45,1.15-7.19,1.68-10.8,2.57-3.53.59-7.09.97-10.72,1.12-.36,0-.43.65-.09.74,1.26.37,2.55.63,3.82.89-.34.5,0,1.35.54,1.36,3.52.24,7.11.09,10.67-.33,25.31-.59,51.62-19.44,67.01-42.72.44-.67-.18-1.86-.8-1.27Z"/>
          <path class="cls-8" d="M204.7,212.94c-2.45,1.88-4.73,3.84-6.93,5.8-8.48,5.17-17.57,8.07-26.85,10.41-13.74,3.46-27.08,1.76-40.91,2.19-.32.02-.45.55-.16.74,3.7,2.6,7.63,4.18,11.63,5.15,21.03,13.35,54.81,6.14,63.55-23.98.08-.24-.18-.43-.33-.31Z"/>
          <path class="cls-7" d="M123.5,351.64c-1.47.51-2.94,1.04-4.46,1.59,4.46.55,8.82.57,12.51.12.15,0,.27-.02.41-.05-2.45,2.85-5.01,5.61-7.62,8.33-1.22,1.3-2.46,2.6-3.74,3.85-1.7,1.7-3.53,3.48-5.43,5.31,18.71-5.55,35.47-15.7,50.11-28.96,6.68-4.16,12.29-9.6,15.48-16.78.11-.26-.15-.66-.43-.43-11.47,9.41-25.11,15.79-39,19.93-14.17,4.24-26.01,2.49-37.38-5.41-.05.35-.02.72.19,1.04,3.86,7.12,11.38,10.21,19.35,11.46Z"/>
        </g>
      </g>
    </g>
  </g>
</svg>